<?xml version="1.0" encoding="UTF-8"?>
<svg version="1.1" xmlns="http://www.w3.org/2000/svg" width="475" height="175">
<path d="M0 0 C156.75 0 313.5 0 475 0 C475 57.75 475 115.5 475 175 C318.25 175 161.5 175 0 175 C0 117.25 0 59.5 0 0 Z " fill="#FEFEFD" transform="translate(0,0)"/>
<path d="M0 0 C1.6371226 1.36054386 3.26068571 2.73747004 4.875 4.125 C5.45088867 4.61887207 6.02677734 5.11274414 6.62011719 5.62158203 C11.93847279 10.1827064 11.93847279 10.1827064 14.23095703 12.17724609 C17.3494815 14.9425112 17.3494815 14.9425112 20.875 17.125 C21.266875 16.77050781 21.65875 16.41601562 22.0625 16.05078125 C33.63928828 5.74644168 45.49716904 -4.00415241 58.875 -11.875 C59.46603516 -12.22933105 60.05707031 -12.58366211 60.66601562 -12.94873047 C84.01732485 -26.80024553 111.35752211 -29.68555085 137.6328125 -23.015625 C138.33954102 -22.82548828 139.04626953 -22.63535156 139.77441406 -22.43945312 C141.86081766 -21.87881097 143.95421097 -21.36444008 146.0546875 -20.859375 C151.29023353 -19.56249663 156.29787677 -18.18887362 161.20703125 -15.921875 C179.54269321 -7.58537412 202.96018722 -5.32063176 222.2734375 -11.40234375 C231.66117528 -15.24093067 240.51901567 -20.13922292 248.875 -25.875 C242.98936189 -11.72144168 227.68987982 -1.02371267 214.875 6.125 C213.79412109 6.805625 213.79412109 6.805625 212.69140625 7.5 C188.06191749 21.84230195 152.80347 12.82743883 127.1875 7 C125.08578322 6.52559549 122.98405543 6.0512739 120.88183594 5.57910156 C119.55823581 5.2796008 118.23591448 4.97438343 116.91503906 4.66308594 C97.26901912 0.15336495 70.39740491 -1.91815679 51.875 7.125 C50.82441406 7.63289063 49.77382813 8.14078125 48.69140625 8.6640625 C37.93281617 14.44766125 28.45614782 22.56848268 20.875 32.125 C17.73072094 29.8382516 15.25150605 27.43245596 12.8125 24.4375 C2.17707572 12.04491867 -13.04086896 4.16754507 -29.125 2.125 C-33.93446958 1.86383114 -38.74663002 1.83147238 -43.5625 1.8125 C-44.24297394 1.80921692 -44.92344788 1.80593384 -45.62454224 1.80255127 C-60.73050221 1.77911095 -75.20365239 3.83141769 -89.84008789 7.59375 C-95.22222814 8.8451163 -100.68480846 9.72863779 -106.125 10.6875 C-107.35734375 10.90857422 -108.5896875 11.12964844 -109.859375 11.35742188 C-136.56834238 16.10026962 -160.74840091 15.76623788 -183.92578125 0.25 C-188.76400506 -3.45390339 -193.1377611 -7.69165801 -197.5 -11.9375 C-198.25071777 -12.66114746 -198.25071777 -12.66114746 -199.01660156 -13.39941406 C-202.51308485 -16.90535369 -204.8166323 -20.49347743 -207.125 -24.875 C-203.88177904 -23.32554549 -200.87395039 -21.50506082 -197.8125 -19.625 C-179.94157495 -9.14364764 -159.58817745 -5.49505686 -139.125 -10.0625 C-137.1139421 -10.62877157 -135.11361042 -11.23433943 -133.125 -11.875 C-131.9390625 -12.23851563 -130.753125 -12.60203125 -129.53125 -12.9765625 C-126.87275918 -13.79650556 -124.22059289 -14.6344008 -121.5703125 -15.48046875 C-113.92135861 -17.90223241 -106.21059552 -20.10630473 -98.47265625 -22.22460938 C-96.51666686 -22.76649329 -94.56954196 -23.34024861 -92.625 -23.921875 C-58.98515095 -32.836435 -26.37271274 -20.73678229 0 0 Z " fill="#C29B32" transform="translate(217.125,138.875)"/>
<path d="M0 0 C2.33848462 2.13539146 3.71253847 4.09470645 5.05078125 6.95703125 C5.41655273 7.73304687 5.78232422 8.5090625 6.15917969 9.30859375 C6.53977539 10.13488281 6.92037109 10.96117187 7.3125 11.8125 C7.70985352 12.66328125 8.10720703 13.5140625 8.51660156 14.390625 C11.30154353 20.38896155 13.96749205 26.42831429 16.515625 32.53125 C17.7511724 35.41852919 19.0398877 38.26611965 20.35546875 41.1171875 C23.13482765 47.20589851 25.61189506 53.39811511 28.0625 59.625 C31.50014813 68.36778495 31.50014813 68.36778495 35.28125 76.96484375 C38.54661491 84.2230348 37.47601876 91.16393553 34.96484375 98.55859375 C31.3351134 107.7431341 26.26866511 114.84790919 17.2421875 119.38671875 C7.72103851 123.00475537 -3.30579932 123.8609367 -12.9140625 120.0390625 C-22.55729755 115.23550347 -29.26951062 109.25884579 -33 99 C-33.5878125 97.6696875 -33.5878125 97.6696875 -34.1875 96.3125 C-38.01909742 80.69137205 -29.93932483 66.86691179 -23.40234375 53.08203125 C-21.46642696 48.82732834 -19.85008888 44.47044959 -18.203125 40.09765625 C-16.75878643 36.37895337 -15.13383918 32.77297672 -13.453125 29.15625 C-11.22296886 24.31225493 -9.08493682 19.42737258 -6.94213867 14.54418945 C-4.76644764 9.61939893 -2.44044603 4.79936268 0 0 Z " fill="#C29C35" transform="translate(237,15)"/>
<path d="M0 0 C0 0.66 0 1.32 0 2 C0.66 2 1.32 2 2 2 C1.67 3.65 1.34 5.3 1 7 C1.66 6.34 2.32 5.68 3 5 C3.99 5.33 4.98 5.66 6 6 C6 7.32 6 8.64 6 10 C6.33 9.34 6.66 8.68 7 8 C9.95552993 7.25626709 12.96329096 7.14824879 16 7 C16.72574219 6.94972656 17.45148438 6.89945312 18.19921875 6.84765625 C20.25 6.875 20.25 6.875 24 8 C26.96906536 11.63206054 29 15.26961586 29 20 C26.03 20.495 26.03 20.495 23 21 C22.505 20.01 22.505 20.01 22 19 C21.505 20.485 21.505 20.485 21 22 C30.61005609 21.35488049 38.34013219 19.34699703 45 12 C46.92913345 8.81689154 46.92913345 8.81689154 48 6 C48.33 6 48.66 6 49 6 C48.05874965 15.22425344 44.4397094 23.55871828 37.1484375 29.51171875 C28.03740306 35.55549259 18.8610846 37.14393368 8 36 C4.70443295 35.06593666 1.93195983 33.75431965 -1 32 C-2.051875 31.401875 -3.10375 30.80375 -4.1875 30.1875 C-10.72364759 25.10382965 -14.94127048 19.12133302 -17 11 C-16.67 10.01 -16.34 9.02 -16 8 C-13.69 10.64 -11.38 13.28 -9 16 C-9.33 14.68 -9.66 13.36 -10 12 C-10 11.34 -10 10.68 -10 10 C-11.32 9.34 -12.64 8.68 -14 8 C-13.6503685 5.23257781 -13.30398227 4.23985619 -11.07421875 2.48046875 C-10.28660156 2.05378906 -9.49898437 1.62710938 -8.6875 1.1875 C-7.90761719 0.74792969 -7.12773437 0.30835937 -6.32421875 -0.14453125 C-3.70485652 -1.10863264 -2.57361524 -0.9599526 0 0 Z " fill="#FBF9F5" transform="translate(222,99)"/>
<path d="M0 0 C0.66 0 1.32 0 2 0 C1.67 1.65 1.34 3.3 1 5 C1.99 5.33 2.98 5.66 4 6 C2.68 6 1.36 6 0 6 C-0.33 7.32 -0.66 8.64 -1 10 C0.65 10 2.3 10 4 10 C4 10.33 4 10.66 4 11 C2.02 11.33 0.04 11.66 -2 12 C-3.32 15.63 -4.64 19.26 -6 23 C-4.02 22.67 -2.04 22.34 0 22 C-3 24 -3 24 -5 24 C-5 24.99 -5 25.98 -5 27 C-1.7 26.01 1.6 25.02 5 24 C2.49183541 26.50816459 1.09162264 27.61410019 -2 29 C-1.58987682 31.37871446 -1.29446732 32.70553268 0.4375 34.4375 C2.4059332 36.4059332 3.08609018 38.39887205 4 41 C-0.2742558 39.4169423 -2.26531794 36.49431596 -5 33 C-3.57865289 40.81740913 -0.34438597 46.74362419 5.375 52.3125 C14.51088774 58.18557069 22.08562822 59.81570568 33 59 C41.88515437 57.0317696 49.72503881 52.76011689 54.875 45.125 C57.11893019 41.21134399 58.13358057 37.41086255 59 33 C58.57589844 33.53109375 58.15179688 34.0621875 57.71484375 34.609375 C51.79668905 41.73717451 46.30912053 45.36023941 37 47 C33.82607032 47.21582323 30.67921543 47.19231238 27.5 47.125 C26.26636719 47.11146484 26.26636719 47.11146484 25.0078125 47.09765625 C23.00507917 47.07436865 21.00249846 47.03850959 19 47 C19 46.67 19 46.34 19 46 C25.435 45.505 25.435 45.505 32 45 C32 42.36 32 39.72 32 37 C33.76462683 40.08809695 34 41.23312136 34 45 C36.97 44.505 36.97 44.505 40 44 C39.69964844 43.37351563 39.39929688 42.74703125 39.08984375 42.1015625 C38.70957031 41.28429687 38.32929688 40.46703125 37.9375 39.625 C37.55464844 38.81289062 37.17179687 38.00078125 36.77734375 37.1640625 C36.52082031 36.44992188 36.26429688 35.73578125 36 35 C36.495 34.01 36.495 34.01 37 33 C41 39.625 41 39.625 41 43 C42.65 42.34 44.3 41.68 46 41 C45.34 39.02 44.68 37.04 44 35 C45.32 35.99 46.64 36.98 48 38 C49.32 37.34 50.64 36.68 52 36 C48.56638098 32.36440339 45.2026393 29.63886654 41 27 C41.99 26.67 42.98 26.34 44 26 C46.19140625 27.43359375 46.19140625 27.43359375 48.5625 29.4375 C51.41597467 32.1626665 51.41597467 32.1626665 55 33 C55.66 31.68 56.32 30.36 57 29 C55.35 28.34 53.7 27.68 52 27 C52.66 26.67 53.32 26.34 54 26 C56.125 26.9375 56.125 26.9375 58 28 C58.33 26.68 58.66 25.36 59 24 C57.515 23.505 57.515 23.505 56 23 C56.99 23 57.98 23 59 23 C58.505 20.03 58.505 20.03 58 17 C54.7 16.67 51.4 16.34 48 16 C48 15.67 48 15.34 48 15 C50.97 15 53.94 15 57 15 C56.505 13.02 56.505 13.02 56 11 C53.69 11 51.38 11 49 11 C49 10.67 49 10.34 49 10 C50.98 10 52.96 10 55 10 C54.01 6.7 53.02 3.4 52 0 C52.66 0 53.32 0 54 0 C55.53093255 3.27811386 57.01865198 6.57421852 58.5 9.875 C59.14388672 11.25171875 59.14388672 11.25171875 59.80078125 12.65625 C63.79701507 21.66363418 64.13208803 29.23200805 60.96484375 38.55859375 C57.3351134 47.7431341 52.26866511 54.84790919 43.2421875 59.38671875 C33.72103851 63.00475537 22.69420068 63.8609367 13.0859375 60.0390625 C3.44270245 55.23550347 -3.26951062 49.25884579 -7 39 C-7.391875 38.113125 -7.78375 37.22625 -8.1875 36.3125 C-11.15546609 24.21233056 -7.24473189 13.87081852 -2 3 C-1.34 2.01 -0.68 1.02 0 0 Z " fill="#C49F39" transform="translate(211,75)"/>
<path d="M0 0 C0 0.66 0 1.32 0 2 C0.66 2 1.32 2 2 2 C1.67 3.65 1.34 5.3 1 7 C1.66 6.34 2.32 5.68 3 5 C3.99 5.33 4.98 5.66 6 6 C6 7.32 6 8.64 6 10 C6.33 9.34 6.66 8.68 7 8 C9.95552993 7.25626709 12.96329096 7.14824879 16 7 C17.08861328 6.92458984 17.08861328 6.92458984 18.19921875 6.84765625 C20.25 6.875 20.25 6.875 24 8 C26.96906536 11.63206054 29 15.26961586 29 20 C26.03 20.495 26.03 20.495 23 21 C22.505 20.01 22.505 20.01 22 19 C21.505 20.485 21.505 20.485 21 22 C22.32 22.66 23.64 23.32 25 24 C5.17161422 24.5775258 5.17161422 24.5775258 -2 21 C-2.94875 20.566875 -3.8975 20.13375 -4.875 19.6875 C-7.64118676 17.49082228 -8.68763827 15.2463685 -10 12 C-10 11.34 -10 10.68 -10 10 C-11.32 9.34 -12.64 8.68 -14 8 C-13.6503685 5.23257781 -13.30398227 4.23985619 -11.07421875 2.48046875 C-10.28660156 2.05378906 -9.49898437 1.62710938 -8.6875 1.1875 C-7.51767578 0.52814453 -7.51767578 0.52814453 -6.32421875 -0.14453125 C-3.70485652 -1.10863264 -2.57361524 -0.9599526 0 0 Z " fill="#CAA955" transform="translate(222,99)"/>
<path d="M0 0 C3.27631006 2.9592478 5.0731964 5.76317901 6.9375 9.75 C8.64498748 13.29335747 10.34838492 16.70685281 12.5 20 C16.41220086 26.04612861 20.5754601 32.8773005 22 40 C20.68 40.66 19.36 41.32 18 42 C17.60748047 40.60974609 17.60748047 40.60974609 17.20703125 39.19140625 C15.0569498 33.44262532 15.0569498 33.44262532 11 29 C4.28568699 26.99666824 -3.07731283 27.56366882 -10 28 C-10.30417847 28.92123657 -10.30417847 28.92123657 -10.61450195 29.86108398 C-10.88222412 30.66876221 -11.14994629 31.47644043 -11.42578125 32.30859375 C-11.69044189 33.10837646 -11.95510254 33.90815918 -12.2277832 34.73217773 C-13.06572772 37.19302713 -13.9946969 39.60273876 -15 42 C-16.65 41.34 -18.3 40.68 -20 40 C-18.38484244 35.74185734 -16.42058123 31.68847938 -14.375 27.625 C-14.02743652 26.93180664 -13.67987305 26.23861328 -13.32177734 25.52441406 C-10.20084139 19.33299286 -6.9531066 13.21277322 -3.6640625 7.109375 C-2.40407916 4.75503993 -1.1749423 2.39735701 0 0 Z " fill="#C1992C" transform="translate(429,58)"/>
<path d="M0 0 C3.2451247 3.78597881 5.61479958 7.77034566 7.875 12.1875 C11.41440285 18.96887688 15.17222985 25.57466787 19.29296875 32.0234375 C22.01507581 36.42711923 22.01507581 36.42711923 21.9375 39.375 C21 41 21 41 18 42 C16.82807953 40.04480616 15.6626071 38.0857461 14.5 36.125 C13.52546875 34.48917969 13.52546875 34.48917969 12.53125 32.8203125 C11 30 11 30 11 28 C0.605 28.495 0.605 28.495 -10 29 C-10.78375 30.959375 -11.5675 32.91875 -12.375 34.9375 C-14.75 40.875 -14.75 40.875 -17 42 C-17.99 41.34 -18.98 40.68 -20 40 C-18.57519597 35.35513885 -16.69192217 31.07307817 -14.5 26.75 C-13.98856445 25.73292969 -13.98856445 25.73292969 -13.46679688 24.6953125 C-9.21740759 16.33336579 -4.61209295 8.16567277 0 0 Z " fill="#C19929" transform="translate(171,58)"/>
<path d="M0 0 C4.53873896 3.41604877 6.83279367 7.56703177 7.8125 13.12890625 C8.24430009 20.67191406 5.70329622 28.06058869 1.125 34 C-6.46489942 39.64829724 -13.24595208 39.72088785 -22.25 38.5 C-27.31264604 36.20748104 -31.07157336 31.98185328 -33.5625 27 C-33.73853147 24.58750308 -33.82994968 22.16849105 -33.875 19.75 C-33.91238281 18.44546875 -33.94976562 17.1409375 -33.98828125 15.796875 C-33.30698401 9.72145377 -30.07046047 6.08794236 -25.5625 2.1875 C-24.9025 1.60355469 -24.2425 1.01960938 -23.5625 0.41796875 C-17.41974155 -3.93715101 -6.3884324 -3.58522195 0 0 Z M-25.3125 8.0625 C-29.29109158 13.25677234 -29.07007105 17.59191545 -28.5625 24 C-27.02443872 28.22966851 -25.05131116 31.14551814 -21.5625 34 C-16.83654947 35.95556574 -11.72503059 35.34074172 -6.9375 33.9375 C-2.44769206 31.36001766 0.48191079 28.04327774 2.05078125 23.046875 C3.03338112 17.84604338 3.26595146 12.90327878 0.75 8.125 C-2.21003204 4.10791837 -2.21003204 4.10791837 -6.5625 2 C-14.69309803 1.12930247 -19.8474167 1.74832183 -25.3125 8.0625 Z " fill="#C1992A" transform="translate(354.5625,61)"/>
<path d="M0 0 C1.65 0 3.3 0 5 0 C5 6.27 5 12.54 5 19 C10.59875877 14.23068697 15.71118375 9.2490367 20.703125 3.84375 C23 2 23 2 25.296875 2.21875 C25.85890625 2.4765625 26.4209375 2.734375 27 3 C26.67 4.32 26.34 5.64 26 7 C25.34 7 24.68 7 24 7 C23.67 7.99 23.34 8.98 23 10 C21.02105938 11.87658163 18.9268034 13.55960294 16.8125 15.28125 C14.74921094 16.96771124 14.74921094 16.96771124 14 20 C17.78413537 25.90068567 23.65570248 30.55798648 29 35 C28.67 36.32 28.34 37.64 28 39 C24 39 24 39 21.6328125 37.05859375 C20.80523437 36.19363281 19.97765625 35.32867187 19.125 34.4375 C18.25101563 33.53 17.37703125 32.6225 16.4765625 31.6875 C14.43526086 29.47233355 12.44492412 27.23691768 10.5 24.9375 C8.33347554 22.00369857 8.33347554 22.00369857 6 21 C6 27.6 6 34.2 6 41 C4.02 41 2.04 41 0 41 C0 27.47 0 13.94 0 0 Z " fill="#C5A03C" transform="translate(19,59)"/>
<path d="M0 0 C16.55981941 0 16.55981941 0 22 5 C22.88864671 8.40455557 22.75314642 11.57263803 22 15 C20.19275136 17.36091441 18.57013693 18.39366442 16 20 C18.07167506 24.85298466 21.74332504 28.43101187 25.19921875 32.34375 C27 35 27 35 26.95703125 37.28125 C26 39 26 39 23 40 C21.33987831 37.86555783 19.6802807 35.73073959 18.0234375 33.59375 C16.68455955 31.87750491 15.33570598 30.16899127 13.9765625 28.46875 C13.02910156 27.27765625 13.02910156 27.27765625 12.0625 26.0625 C11.47597656 25.33160156 10.88945313 24.60070312 10.28515625 23.84765625 C9 22 9 22 9 20 C10.13520279 19.06461607 11.30867237 18.17526703 12.5 17.3125 C15.65298136 14.74316911 15.95187893 14.4262152 16.4375 10.125 C16.293125 9.09375 16.14875 8.0625 16 7 C11.71772212 4.65494306 8.99875355 3.83312559 4 3 C4 14.88 4 26.76 4 39 C2.68 39 1.36 39 0 39 C0 26.13 0 13.26 0 0 Z " fill="#C19A2E" transform="translate(61,60)"/>
<path d="M0 0 C0.33 1.65 0.66 3.3 1 5 C-0.134375 5.20625 -1.26875 5.4125 -2.4375 5.625 C-10.11579468 7.5819459 -16.53832427 12.34539429 -21.03125 18.84765625 C-22.76245514 22.69400315 -22.33821434 26.07818109 -21 30 C-18.35000814 33.82776601 -15.46079664 34.94562989 -11 36 C-7.33342003 36.4399896 -3.68544808 36.73033307 0 37 C0 32.38 0 27.76 0 23 C1.65 23 3.3 23 5 23 C5 28.61 5 34.22 5 40 C-1.75493698 42.25164566 -12.19079328 42.38597369 -18.6875 39.375 C-23.12150121 36.61846385 -26.33617008 32.99148977 -28 28 C-28.76868112 22.52314705 -28.15397172 19.60183203 -25.125 14.9375 C-19.34050156 7.34169396 -9.97673956 0 0 0 Z " fill="#C39C32" transform="translate(397,59)"/>
<path d="M0 0 C7.6939591 3.76846976 12.97003565 9.41418476 17 17 C17.27972656 16.41992188 17.55945313 15.83984375 17.84765625 15.2421875 C21.38255612 8.35424756 25.12665449 3.5493382 32.4375 0.625 C33.283125 0.41875 34.12875 0.2125 35 0 C35 1.65 35 3.3 35 5 C33.96875 5.515625 32.9375 6.03125 31.875 6.5625 C26.83848721 9.45364223 23.18434602 13.26248047 20.87109375 18.609375 C19.73240839 23.04156734 19.53978363 27.31598614 19.375 31.875 C19.33632812 32.75414062 19.29765625 33.63328125 19.2578125 34.5390625 C19.16418966 36.69238793 19.08103541 38.84616414 19 41 C17.02 41 15.04 41 13 41 C12.98598145 40.15405273 12.98598145 40.15405273 12.97167969 39.29101562 C12.91742514 36.69318008 12.83389317 34.09704081 12.75 31.5 C12.73582031 30.613125 12.72164062 29.72625 12.70703125 28.8125 C12.42545032 21.15349867 10.70361365 15.88385457 5.421875 10.25 C4.54015625 9.5075 3.6584375 8.765 2.75 8 C1.85796875 7.236875 0.9659375 6.47375 0.046875 5.6875 C-0.62859375 5.130625 -1.3040625 4.57375 -2 4 C-1.34 2.68 -0.68 1.36 0 0 Z " fill="#C59F3A" transform="translate(117,59)"/>
<path d="M0 0 C5.95633949 1.62445622 10.23333312 6.04005812 13.3359375 11.23828125 C14.28355634 13.13015859 15.15011035 15.06225159 16 17 C16.42410156 16.34773438 16.84820312 15.69546875 17.28515625 15.0234375 C25.87866552 2.21816435 25.87866552 2.21816435 32.20703125 0.34765625 C32.79871094 0.23292969 33.39039063 0.11820313 34 0 C34.495 1.98 34.495 1.98 35 4 C34.48050781 4.36351562 33.96101563 4.72703125 33.42578125 5.1015625 C27.39570108 9.44857039 22.2708621 13.65885096 20 21 C19.62516356 24.26575336 19.492544 27.52861463 19.375 30.8125 C19.33632813 31.69615234 19.29765625 32.57980469 19.2578125 33.49023438 C19.16399216 35.65982972 19.08092674 37.82988547 19 40 C17.35 40 15.7 40 14 40 C13.97421875 38.96101563 13.9484375 37.92203125 13.921875 36.8515625 C13.54926063 26.5384384 12.70892699 16.70892699 5 9 C2.7205737 7.22765989 0.39866726 5.61448758 -2 4 C-1.34 2.68 -0.68 1.36 0 0 Z " fill="#C1992A" transform="translate(284,59)"/>
<path d="M0 0 C2.33848462 2.13539146 3.71253847 4.09470645 5.05078125 6.95703125 C5.41671387 7.73336914 5.78264648 8.50970703 6.15966797 9.30957031 C6.54010254 10.13553711 6.92053711 10.96150391 7.3125 11.8125 C7.70840332 12.66038086 8.10430664 13.50826172 8.51220703 14.38183594 C11.82790612 21.52479144 14.95808685 28.73628012 18 36 C18.28520508 36.60650391 18.57041016 37.21300781 18.86425781 37.83789062 C21.10503948 42.68488155 21.10503948 42.68488155 20 46 C18.68 44.68 17.36 43.36 16 42 C14.68 44.64 13.36 47.28 12 50 C11 47 11 47 11.8125 45.1328125 C12.204375 44.47023437 12.59625 43.80765625 13 43.125 C14.50446632 40.31769687 15.0204456 39.32031443 14.8125 36.0625 C14.17485801 34.04194931 14.17485801 34.04194931 13 33 C12.34 33.99 11.68 34.98 11 36 C11.03255208 34.01432292 11.06510417 32.02864583 11.09765625 30.04296875 C11.08263217 27.79694539 11.08263217 27.79694539 10 25 C9.34 24.67 8.68 24.34 8 24 C8 25.65 8 27.3 8 29 C7.67 29 7.34 29 7 29 C7.06960937 28.45214844 7.13921875 27.90429688 7.2109375 27.33984375 C7.80428415 18.65155345 4.47495385 11.75659341 1 4 C0.65066406 4.84304687 0.30132812 5.68609375 -0.05859375 6.5546875 C-0.51363281 7.65039062 -0.96867187 8.74609375 -1.4375 9.875 C-2.11619141 11.51082031 -2.11619141 11.51082031 -2.80859375 13.1796875 C-3.49543463 14.80558624 -4.21065887 16.42131774 -5 18 C-5.07181821 20.71760108 -5.09299506 23.40859388 -5.0625 26.125 C-5.05798828 26.87910156 -5.05347656 27.63320313 -5.04882812 28.41015625 C-5.03703499 30.27347127 -5.01909942 32.13674555 -5 34 C-5.33 34 -5.66 34 -6 34 C-6.66 31.03 -7.32 28.06 -8 25 C-8.66 28.3 -9.32 31.6 -10 35 C-11.485 35.495 -11.485 35.495 -13 36 C-13.495 38.475 -13.495 38.475 -14 41 C-14.66 41 -15.32 41 -16 41 C-16.33 42.98 -16.66 44.96 -17 47 C-17.99 46.67 -18.98 46.34 -20 46 C-18.19865562 40.21673646 -16.08118818 34.78441283 -13.5234375 29.296875 C-11.26464002 24.40860559 -9.10628199 19.47617567 -6.94262695 14.54516602 C-4.76668308 9.62008955 -2.44061202 4.79968912 0 0 Z " fill="#C39C2F" transform="translate(237,15)"/>
<path d="M0 0 C1.98 0.99 3.96 1.98 6 3 C5.88660796 5.64680904 5.75987127 8.29177518 5.625 10.9375 C5.57859375 12.06961914 5.57859375 12.06961914 5.53125 13.22460938 C5.4273685 15.15507395 5.22104386 17.07942081 5 19 C4.34 19.33 3.68 19.66 3 20 C3.99 20.33 4.98 20.66 6 21 C4.42356682 22.01084265 2.8385483 23.00830511 1.25 24 C0.36828125 24.556875 -0.5134375 25.11375 -1.421875 25.6875 C-4 27 -4 27 -8 27 C-8 24 -8 24 -7 23 C-7.66 23 -8.32 23 -9 23 C-7.34839584 13.90646182 -7.34839584 13.90646182 -4 10 C-2.91738193 7.59418207 -2.07704534 5.30818138 -1.4375 2.75 C-1 1 -1 1 0 0 Z " fill="#D1B67A" transform="translate(214,75)"/>
<path d="M0 0 C1.32 1.65 2.64 3.3 4 5 C4.66 4.67 5.32 4.34 6 4 C7.98 9.28 9.96 14.56 12 20 C11.34 20 10.68 20 10 20 C9.67 21.65 9.34 23.3 9 25 C7.35 25.33 5.7 25.66 4 26 C4 23 4 23 5 21 C3.68 21.33 2.36 21.66 1 22 C0.67 20.68 0.34 19.36 0 18 C-0.99 18 -1.98 18 -3 18 C-3 17.01 -3 16.02 -3 15 C-3.99 15 -4.98 15 -6 15 C-4.36041242 9.76727367 -2.61047965 4.84803364 0 0 Z " fill="#C7A444" transform="translate(253,55)"/>
<path d="M0 0 C0 0.66 0 1.32 0 2 C0.66 2 1.32 2 2 2 C1.67 3.65 1.34 5.3 1 7 C1.66 6.34 2.32 5.68 3 5 C3.99 5.33 4.98 5.66 6 6 C5.39254603 10.85963179 3.27241033 14.7405518 1 19 C-0.98 18.34 -2.96 17.68 -5 17 C-5 16.34 -5 15.68 -5 15 C-6.32 14.67 -7.64 14.34 -9 14 C-9.12375 13.071875 -9.12375 13.071875 -9.25 12.125 C-9.81258459 9.81562433 -9.81258459 9.81562433 -12.0625 8.75 C-12.701875 8.5025 -13.34125 8.255 -14 8 C-13.6503685 5.23257781 -13.30398227 4.23985619 -11.07421875 2.48046875 C-10.28660156 2.05378906 -9.49898437 1.62710938 -8.6875 1.1875 C-7.51767578 0.52814453 -7.51767578 0.52814453 -6.32421875 -0.14453125 C-3.70485652 -1.10863264 -2.57361524 -0.9599526 0 0 Z " fill="#F4EDDF" transform="translate(222,99)"/>
<path d="M0 0 C1.5 1.1875 1.5 1.1875 3 3 C3.1875 5.6875 3.1875 5.6875 3 8 C5.97 8 8.94 8 12 8 C11.154375 8.639375 10.30875 9.27875 9.4375 9.9375 C6.78779668 12.65331049 6.78779668 12.65331049 6.890625 15.3359375 C7.15865281 17.57185371 7.57105928 19.78930552 8 22 C5.36 20.68 2.72 19.36 0 18 C-0.78375 18.66 -1.5675 19.32 -2.375 20 C-5 22 -5 22 -7 22 C-6.82210937 21.07767578 -6.82210937 21.07767578 -6.640625 20.13671875 C-6.25426678 17.7142527 -5.95196033 15.45439032 -6 13 C-7.80495431 10.99821137 -7.80495431 10.99821137 -10 10 C-10 9.34 -10 8.68 -10 8 C-7.36 8 -4.72 8 -2 8 C-1.855625 6.865625 -1.71125 5.73125 -1.5625 4.5625 C-1 1 -1 1 0 0 Z " fill="#F9F7F2" transform="translate(237,76)"/>
<path d="M0 0 C1.65 0 3.3 0 5 0 C5 12.87 5 25.74 5 39 C3.35 39 1.7 39 0 39 C0 26.13 0 13.26 0 0 Z " fill="#C19829" transform="translate(100,60)"/>
<path d="M0 0 C0.66 0 1.32 0 2 0 C7.05068376 8.94886249 7.29814568 15.90813506 5.41894531 25.77050781 C4.96566934 28.18269673 4.56828801 30.60001714 4.1796875 33.0234375 C3.48295498 37.35445473 2.75035386 41.67796174 2 46 C1.34 46 0.68 46 0 46 C0 30.82 0 15.64 0 0 Z " fill="#F6F2EA" transform="translate(238,22)"/>
<path d="M0 0 C3.04337302 3.59064623 5.32194089 7.20698688 7.5 11.375 C9.40640786 15.0111443 11.32507601 18.58111125 13.5 22.0625 C15 25 15 25 14.9375 27.375 C14 29 14 29 11 30 C9.82823482 27.87767021 8.66245215 25.75242209 7.5 23.625 C7.16613281 23.02171875 6.83226562 22.4184375 6.48828125 21.796875 C4 17.2265625 4 17.2265625 4 15 C3.11957031 15.01160156 2.23914063 15.02320312 1.33203125 15.03515625 C-0.41013672 15.04869141 -0.41013672 15.04869141 -2.1875 15.0625 C-3.33605469 15.07410156 -4.48460937 15.08570312 -5.66796875 15.09765625 C-8.59300586 15.01192832 -11.16316291 14.67849023 -14 14 C-14 13.67 -14 13.34 -14 13 C-9.05 12.67 -4.1 12.34 1 12 C0.2575 10.3603125 0.2575 10.3603125 -0.5 8.6875 C-2 5 -2 5 -2 2 C-1.34 2 -0.68 2 0 2 C0 1.34 0 0.68 0 0 Z " fill="#C09724" transform="translate(436,70)"/>
<path d="M0 0 C0.33 0 0.66 0 1 0 C1 15.18 1 30.36 1 46 C0.34 46 -0.32 46 -1 46 C-1.67812422 41.85595766 -2.34039758 37.7095274 -3 33.5625 C-3.19078125 32.39783203 -3.3815625 31.23316406 -3.578125 30.03320312 C-6.34040754 12.52230489 -6.34040754 12.52230489 -2.5 4.9375 C-2.0359375 3.99777344 -1.571875 3.05804687 -1.09375 2.08984375 C-0.55234375 1.05537109 -0.55234375 1.05537109 0 0 Z " fill="#FDFCFA" transform="translate(236,22)"/>
<path d="M0 0 C0.99 2.97 1.98 5.94 3 9 C2.01 9.33 1.02 9.66 0 10 C1.32 10.33 2.64 10.66 4 11 C5.28571429 18.42857143 5.28571429 18.42857143 4 22 C-0.8274799 20.58707905 -4.7162359 18.57025846 -9 16 C-9 15.34 -9 14.68 -9 14 C-8.01 14 -7.02 14 -6 14 C-6.66 13.67 -7.32 13.34 -8 13 C-7.67 9.04 -7.34 5.08 -7 1 C-4 0 -4 0 0 0 Z " fill="#F2EADA" transform="translate(265,81)"/>
<path d="M0 0 C3.96 0 7.92 0 12 0 C11.67 0.66 11.34 1.32 11 2 C8.69 2 6.38 2 4 2 C4 14.21 4 26.42 4 39 C2.68 39 1.36 39 0 39 C0 26.13 0 13.26 0 0 Z " fill="#C09621" transform="translate(61,60)"/>
<path d="M0 0 C0.99 0.33 1.98 0.66 3 1 C3.33 3.64 3.66 6.28 4 9 C4.66 8.67 5.32 8.34 6 8 C7.4245056 10.26245007 8.05357769 11.524498 7.75 14.21875 C6.83143677 17.62508866 5.45004942 20.62649166 3.9375 23.8125 C3.38964844 24.97394531 2.84179688 26.13539062 2.27734375 27.33203125 C1.85582031 28.21246094 1.43429688 29.09289062 1 30 C-0.65 29.67 -2.3 29.34 -4 29 C-3.91435791 28.44127197 -3.82871582 27.88254395 -3.74047852 27.30688477 C-3.34593582 24.72570708 -2.95420508 22.14410977 -2.5625 19.5625 C-2.42779297 18.68400391 -2.29308594 17.80550781 -2.15429688 16.90039062 C-1.30342713 11.27634911 -0.59276656 5.65717993 0 0 Z " fill="#EEE4CD" transform="translate(245,39)"/>
<path d="M0 0 C0.66 0 1.32 0 2 0 C1.67 1.65 1.34 3.3 1 5 C1.99 5.33 2.98 5.66 4 6 C2.68 6 1.36 6 0 6 C-0.33 7.32 -0.66 8.64 -1 10 C0.65 10 2.3 10 4 10 C4 10.33 4 10.66 4 11 C2.02 11.33 0.04 11.66 -2 12 C-3.32 15.63 -4.64 19.26 -6 23 C-4.02 22.67 -2.04 22.34 0 22 C-3 24 -3 24 -5 24 C-5 24.99 -5 25.98 -5 27 C-1.7 26.01 1.6 25.02 5 24 C2.49183541 26.50816459 1.09162264 27.61410019 -2 29 C-1.58987682 31.37871446 -1.29446732 32.70553268 0.4375 34.4375 C2.4059332 36.4059332 3.08609018 38.39887205 4 41 C0.94704852 39.86927723 -0.60796794 38.38627756 -2.5625 35.875 C-3.366875 34.92625 -4.17125 33.9775 -5 33 C-5.99 33 -6.98 33 -8 33 C-8.33 33 -8.66 33 -9 33 C-10.42294596 21.48091363 -6.39841225 9.59761838 0 0 Z " fill="#C6A246" transform="translate(211,75)"/>
<path d="M0 0 C0.92091738 2.57856865 1.18506902 3.5943287 0.0234375 6.140625 C-0.48316406 7.06101562 -0.48316406 7.06101562 -1 8 C3.60136502 13.53601728 8.46398272 18.39863498 14 23 C13.67 24.32 13.34 25.64 13 27 C9 27 9 27 6.6328125 25.05859375 C5.80523437 24.19363281 4.97765625 23.32867187 4.125 22.4375 C3.25359375 21.53128906 2.3821875 20.62507813 1.484375 19.69140625 C-1.43618853 16.52746242 -4.25780508 13.31949911 -7 10 C-5.6062718 5.56541027 -3.39417765 3.12621626 0 0 Z " fill="#C29B31" transform="translate(34,71)"/>
<path d="M0 0 C0.66 0 1.32 0 2 0 C3.20005531 2.0978523 4.38502983 4.2020249 5.5625 6.3125 C5.90474609 6.90740234 6.24699219 7.50230469 6.59960938 8.11523438 C7.47766262 9.70282559 8.24586268 11.34993931 9 13 C8.67 13.99 8.34 14.98 8 16 C3.38 16 -1.24 16 -6 16 C-5.19525189 11.17151132 -4.60225453 8.73248296 -2.4375 4.625 C-1.98246094 3.75101562 -1.52742187 2.87703125 -1.05859375 1.9765625 C-0.70925781 1.32429688 -0.35992187 0.67203125 0 0 Z " fill="#F7F3EB" transform="translate(170,67)"/>
<path d="M0 0 C2.79192205 -0.05380578 5.5828141 -0.09357669 8.375 -0.125 C9.1690625 -0.14175781 9.963125 -0.15851563 10.78125 -0.17578125 C12.85492015 -0.19335473 14.92883241 -0.10335168 17 0 C17.66 0.66 18.32 1.32 19 2 C18.9375 4.5 18.9375 4.5 18 7 C14.57903286 8.95483837 10.90747609 9.66744884 7 10 C4.625 9.0625 4.625 9.0625 3 8 C3.50603992 5.83125748 3.99983813 4.00032373 5 2 C4.01 2 3.02 2 2 2 C1.67 3.98 1.34 5.96 1 8 C0.67 8 0.34 8 0 8 C0 5.36 0 2.72 0 0 Z " fill="#D9C187" transform="translate(398,138)"/>
<path d="M0 0 C3.92005939 1.30668646 4.28032042 2.78667695 6.1875 6.375 C6.71730469 7.35210937 7.24710937 8.32921875 7.79296875 9.3359375 C9 12 9 12 9 15 C3.94997778 16.03590199 -0.87416389 16.10251672 -6 16 C-5.23757784 12.38944909 -3.87526626 9.14165375 -2.4375 5.75 C-1.98246094 4.67234375 -1.52742188 3.5946875 -1.05859375 2.484375 C-0.70925781 1.66453125 -0.35992187 0.8446875 0 0 Z " fill="#F8F4ED" transform="translate(428,67)"/>
<path d="M0 0 C4.98012761 1.50912958 8.24259942 4.55661849 12 8 C11.01 9.32 10.02 10.64 9 12 C7.68 11.34 6.36 10.68 5 10 C5.33 11.32 5.66 12.64 6 14 C4.02 14.66 2.04 15.32 0 16 C-0.89429374 14.4274835 -1.76487427 12.84146259 -2.625 11.25 C-3.11226562 10.36828125 -3.59953125 9.4865625 -4.1015625 8.578125 C-5 6 -5 6 -4.1484375 3.671875 C-3.76945313 3.12015625 -3.39046875 2.5684375 -3 2 C-2.34 2 -1.68 2 -1 2 C-0.67 1.34 -0.34 0.68 0 0 Z " fill="#F5EFE2" transform="translate(252,102)"/>
<path d="M0 0 C2.0625 0.4375 2.0625 0.4375 4 1 C4 1.99 4 2.98 4 4 C9.94 4.33 15.88 4.66 22 5 C22 5.33 22 5.66 22 6 C15.07 6 8.14 6 1 6 C0.01 8.97 -0.98 11.94 -2 15 C-2.64896236 16.67363977 -3.30580437 18.34461042 -4 20 C-6.475 19.01 -6.475 19.01 -9 18 C-7.51800377 14.13392289 -5.79247064 10.45082594 -3.9375 6.75 C-3.41027344 5.69296875 -2.88304687 4.6359375 -2.33984375 3.546875 C-1 1 -1 1 0 0 Z " fill="#C39D38" transform="translate(418,80)"/>
<path d="M0 0 C0.33 0 0.66 0 1 0 C1.85298376 3.67387495 2.10789471 7.0447393 2.0625 10.8125 C2.05347656 11.78832031 2.04445312 12.76414062 2.03515625 13.76953125 C2.02355469 14.50558594 2.01195312 15.24164063 2 16 C1.34 16 0.68 16 0 16 C0.144375 16.59167969 0.28875 17.18335937 0.4375 17.79296875 C1.40822694 21.92529941 2.27593702 25.7229762 2 30 C-0.61278838 27.65538638 -2.10657974 25.24886045 -3.6875 22.125 C-4.12449219 21.28195313 -4.56148437 20.43890625 -5.01171875 19.5703125 C-6.06880699 16.82104745 -6.29737779 14.91833455 -6 12 C-5.54625 11.566875 -5.0925 11.13375 -4.625 10.6875 C-2.00618888 7.96796537 -1.8223005 4.64161651 -1 1 C-0.67 0.67 -0.34 0.34 0 0 Z " fill="#F8F5EF" transform="translate(229,39)"/>
<path d="M0 0 C1.60292156 3.00899311 2.69533461 6.01199223 3.75 9.25 C7.36058687 19.24239909 13.14377382 25.12325731 22.5625 29.75 C28.44655766 31.81233308 34.82728723 31.74858333 41 32 C40.505 32.99 40.505 32.99 40 34 C27.97419898 34.54940208 19.48667644 32.62864565 10 25 C4.79007327 20.06248774 0.256198 13.3596621 -0.09765625 5.95703125 C-0.06510417 3.97135417 -0.03255208 1.98567708 0 0 Z " fill="#BE9312" transform="translate(203,103)"/>
<path d="M0 0 C2.2265625 0.10546875 2.2265625 0.10546875 5 1 C6.71738628 3.11574908 8.02619302 4.98618683 9.375 7.3125 C9.74238281 7.89451172 10.10976562 8.47652344 10.48828125 9.07617188 C11.98783806 11.57449012 13.02185616 13.40094264 12.9140625 16.35546875 C12 18 12 18 9 19 C8.61972656 18.01257813 8.23945313 17.02515625 7.84765625 16.0078125 C4.84623369 8.79185444 4.84623369 8.79185444 -1.04736328 4.140625 C-5.99213169 3.0169591 -10.94735051 2.91961694 -16 3 C-16 2.67 -16 2.34 -16 2 C-10.72 2 -5.44 2 0 2 C0 1.34 0 0.68 0 0 Z " fill="#C09722" transform="translate(180,81)"/>
<path d="M0 0 C1.32 0.33 2.64 0.66 4 1 C4 2.32 4 3.64 4 5 C4.33 4.01 4.66 3.02 5 2 C6.65 2 8.3 2 10 2 C9.67 2.66 9.34 3.32 9 4 C9.33 4.66 9.66 5.32 10 6 C10.66 5.01 11.32 4.02 12 3 C12.66 3 13.32 3 14 3 C14.33 3.66 14.66 4.32 15 5 C15.66 4.34 16.32 3.68 17 3 C17 4.98 17 6.96 17 9 C17.99 9 18.98 9 20 9 C20 9.66 20 10.32 20 11 C13.50042757 11.30950345 7.93418045 10.88761459 2 8 C1.67 7.34 1.34 6.68 1 6 C0.01 6 -0.98 6 -2 6 C-1.34 4.02 -0.68 2.04 0 0 Z " fill="#E0CDA6" transform="translate(377,135)"/>
<path d="M0 0 C1.5625 1.125 1.5625 1.125 3 3 C2.6875 6.1875 2.6875 6.1875 2 9 C2.99 8.67 3.98 8.34 5 8 C5.8125 9.6875 5.8125 9.6875 6 12 C3.8125 14.8125 3.8125 14.8125 1 17 C-1.25 16.8125 -1.25 16.8125 -3 16 C-3.33 16 -3.66 16 -4 16 C-4.66 15.34 -5.32 14.68 -6 14 C-5.37720331 12.41579871 -4.75166599 10.83267469 -4.125 9.25 C-3.60292969 7.92742188 -3.60292969 7.92742188 -3.0703125 6.578125 C-2.1353291 4.3259752 -1.12219206 2.16350541 0 0 Z " fill="#F8F5EF" transform="translate(253,55)"/>
<path d="M0 0 C1.8871875 0.0309375 1.8871875 0.0309375 3.8125 0.0625 C3.8125 1.0525 3.8125 2.0425 3.8125 3.0625 C3.4825 3.3925 3.1525 3.7225 2.8125 4.0625 C3.8025 4.3925 4.7925 4.7225 5.8125 5.0625 C4.23606682 6.07334265 2.6510483 7.07080511 1.0625 8.0625 C0.18078125 8.619375 -0.7009375 9.17625 -1.609375 9.75 C-4.1875 11.0625 -4.1875 11.0625 -8.1875 11.0625 C-8.1875 8.0625 -8.1875 8.0625 -7.1875 7.0625 C-7.8475 7.0625 -8.5075 7.0625 -9.1875 7.0625 C-8.68146008 4.89375748 -8.18766187 3.06282373 -7.1875 1.0625 C-4.43671116 0.14557039 -2.82801087 -0.04636083 0 0 Z " fill="#F5EFE4" transform="translate(214.1875,90.9375)"/>
<path d="M0 0 C0.66 0.99 1.32 1.98 2 3 C2.33 2.34 2.66 1.68 3 1 C3 2.32 3 3.64 3 5 C4.98 5 6.96 5 9 5 C9 5.33 9 5.66 9 6 C6.36 6.33 3.72 6.66 1 7 C0.49339844 8.28197266 0.49339844 8.28197266 -0.0234375 9.58984375 C-0.46945313 10.69457031 -0.91546875 11.79929687 -1.375 12.9375 C-1.81585938 14.03964844 -2.25671875 15.14179687 -2.7109375 16.27734375 C-4 19 -4 19 -6 20 C-6.99 19.34 -7.98 18.68 -9 18 C-7.65072455 13.46152802 -5.80840652 9.68067754 -3.375 5.625 C-2.74335938 4.56539063 -2.11171875 3.50578125 -1.4609375 2.4140625 C-0.73777344 1.21910156 -0.73777344 1.21910156 0 0 Z " fill="#C0961E" transform="translate(160,80)"/>
<path d="M0 0 C0 1.65 0 3.3 0 5 C-1.03125 5.515625 -2.0625 6.03125 -3.125 6.5625 C-7.37542437 8.96791257 -9.99825093 12.22690364 -13 16 C-13.66 16.66 -14.32 17.32 -15 18 C-15.66 17.67 -16.32 17.34 -17 17 C-15.90278416 11.33735731 -12.41289673 6.86674942 -7.89453125 3.37109375 C-2.62179487 0 -2.62179487 0 0 0 Z " fill="#C09725" transform="translate(152,59)"/>
<path d="M0 0 C0.33 2.31 0.66 4.62 1 7 C0.34 7 -0.32 7 -1 7 C-1.33 6.34 -1.66 5.68 -2 5 C-2.66 5.66 -3.32 6.32 -4 7 C-5.33333333 6.66666667 -6.66666667 6.33333333 -8 6 C-8.66 6.66 -9.32 7.32 -10 8 C-12.125 7.625 -12.125 7.625 -14 7 C-14 5.02 -14 3.04 -14 1 C-11.10765685 0.17361624 -9.11257569 0 -6 0 C-3 -1 -3 -1 0 0 Z " fill="#DDC99A" transform="translate(307,126)"/>
<path d="M0 0 C0.33 0 0.66 0 1 0 C1.33 4.62 1.66 9.24 2 14 C1.67 14 1.34 14 1 14 C0.34 11.03 -0.32 8.06 -1 5 C-1.66 8.3 -2.32 11.6 -3 15 C-3.99 15.33 -4.98 15.66 -6 16 C-6.33 17.65 -6.66 19.3 -7 21 C-7.66 21 -8.32 21 -9 21 C-9.33 22.98 -9.66 24.96 -10 27 C-10.99 26.67 -11.98 26.34 -13 26 C-11.11978282 19.96351328 -8.86966111 14.30170779 -6.18359375 8.578125 C-5.0368738 6.08031918 -3.99911037 3.55993257 -3 1 C-2.34 1.33 -1.68 1.66 -1 2 C-0.67 1.34 -0.34 0.68 0 0 Z " fill="#C5A03B" transform="translate(230,35)"/>
<path d="M0 0 C0.55171875 0.22558594 1.1034375 0.45117188 1.671875 0.68359375 C0.94751067 5.05837305 -1.1503168 6.82146391 -4.47265625 9.5546875 C-6.328125 10.68359375 -6.328125 10.68359375 -9.265625 10.55859375 C-10.2865625 10.12546875 -10.2865625 10.12546875 -11.328125 9.68359375 C-11.658125 8.36359375 -11.988125 7.04359375 -12.328125 5.68359375 C-10.75465324 4.64762475 -9.16890954 3.63027643 -7.578125 2.62109375 C-6.69640625 2.05261719 -5.8146875 1.48414062 -4.90625 0.8984375 C-2.328125 -0.31640625 -2.328125 -0.31640625 0 0 Z " fill="#F0E6D0" transform="translate(220.328125,98.31640625)"/>
<path d="M0 0 C0.66 0 1.32 0 2 0 C3.53093255 3.27811386 5.01865198 6.57421852 6.5 9.875 C6.92925781 10.7928125 7.35851562 11.710625 7.80078125 12.65625 C10.60823203 18.98415493 11.60849828 24.09053957 11 31 C10.67 31 10.34 31 10 31 C10 28.03 10 25.06 10 22 C9.01 22 8.02 22 7 22 C6.67 20.35 6.34 18.7 6 17 C2.7 16.67 -0.6 16.34 -4 16 C-4 15.67 -4 15.34 -4 15 C-1.03 15 1.94 15 5 15 C4.67 13.68 4.34 12.36 4 11 C1.69 11 -0.62 11 -3 11 C-3 10.67 -3 10.34 -3 10 C-1.02 10 0.96 10 3 10 C2.01 6.7 1.02 3.4 0 0 Z " fill="#C39B2F" transform="translate(263,75)"/>
<path d="M0 0 C0.66 0 1.32 0 2 0 C2.37851209 5.93002267 1.10575375 10.47239641 -1 16 C-0.35933594 15.98839844 0.28132812 15.97679688 0.94140625 15.96484375 C6.08653222 15.91116881 10.93024924 16.11830422 16 17 C16 17.33 16 17.66 16 18 C2.43113772 18.19760479 2.43113772 18.19760479 -2 17 C-2.33 16.34 -2.66 15.68 -3 15 C-3.66 14.67 -4.32 14.34 -5 14 C-4.46515599 8.65155992 -2.53309233 4.64203897 0 0 Z " fill="#C59F3F" transform="translate(165,68)"/>
<path d="M0 0 C2.84323425 2.46802739 4.15880824 5.08454454 5.6875 8.5 C6.34298828 9.93859375 6.34298828 9.93859375 7.01171875 11.40625 C8 14 8 14 8 17 C7.34 17 6.68 17 6 17 C4.35 12.71 2.7 8.42 1 4 C-0.1446875 6.7534375 -0.1446875 6.7534375 -1.3125 9.5625 C-3.18308341 14.05296301 -5.0715516 18.5341195 -7 23 C-7.66 22.67 -8.32 22.34 -9 22 C-7.00878667 14.10501383 -3.81085857 7.17773362 0 0 Z " fill="#C0971E" transform="translate(237,15)"/>
<path d="M0 0 C2.64 0 5.28 0 8 0 C8 0.99 8 1.98 8 3 C8.66 3 9.32 3 10 3 C10 2.01 10 1.02 10 0 C10.66 0 11.32 0 12 0 C12.33 0.99 12.66 1.98 13 3 C13.33 2.34 13.66 1.68 14 1 C14.66 1 15.32 1 16 1 C17.4606285 3.64738916 18 4.89448334 18 8 C17.34 8 16.68 8 16 8 C16 7.34 16 6.68 16 6 C15.34 6 14.68 6 14 6 C14 6.66 14 7.32 14 8 C12.68 8 11.36 8 10 8 C10 6.68 10 5.36 10 4 C9.34 4 8.68 4 8 4 C8 4.99 8 5.98 8 7 C7.34 7 6.68 7 6 7 C6 5.02 6 3.04 6 1 C5.01 1.495 5.01 1.495 4 2 C3.34444881 4.52733235 3.34444881 4.52733235 3 7 C2.34 7 1.68 7 1 7 C1.33 5.02 1.66 3.04 2 1 C1.34 0.67 0.68 0.34 0 0 Z " fill="#F0E8D9" transform="translate(59,136)"/>
<path d="M0 0 C2.33936818 2.12669835 3.80653848 4.06224856 5 7 C5 7.99 5 8.98 5 10 C7.64 9.01 10.28 8.02 13 7 C13 7.99 13 8.98 13 10 C11.75108386 10.48198463 10.50081192 10.96045677 9.25 11.4375 C8.20585937 11.83775391 8.20585937 11.83775391 7.140625 12.24609375 C3.57598754 13.50152264 0.45892087 14.12470658 -3.328125 14.09765625 C-4.12734375 14.09443359 -4.9265625 14.09121094 -5.75 14.08789062 C-6.575 14.07951172 -7.4 14.07113281 -8.25 14.0625 C-9.09046875 14.05798828 -9.9309375 14.05347656 -10.796875 14.04882812 C-12.86461401 14.03707961 -14.93231624 14.01914522 -17 14 C-17 13.67 -17 13.34 -17 13 C-10.565 12.505 -10.565 12.505 -4 12 C-4 9.36 -4 6.72 -4 4 C-2.23537317 7.08809695 -2 8.23312136 -2 12 C-0.02 11.67 1.96 11.34 4 11 C3.71125 10.37351562 3.4225 9.74703125 3.125 9.1015625 C2.75375 8.28429687 2.3825 7.46703125 2 6.625 C1.62875 5.81289062 1.2575 5.00078125 0.875 4.1640625 C0 2 0 2 0 0 Z " fill="#C39C30" transform="translate(247,108)"/>
<path d="M0 0 C1.32 0 2.64 0 4 0 C4 0.66 4 1.32 4 2 C5.32 1.34 6.64 0.68 8 0 C8.33 2.31 8.66 4.62 9 7 C8.34 7 7.68 7 7 7 C7 6.01 7 5.02 7 4 C6.34 4 5.68 4 5 4 C5 4.99 5 5.98 5 7 C4.34 7 3.68 7 3 7 C2.67 5.68 2.34 4.36 2 3 C1.67 4.65 1.34 6.3 1 8 C-1.3125 8.25 -1.3125 8.25 -4 8 C-5.97610386 5.95575462 -7 4.8823175 -7 2 C-5.34385343 1.61781233 -3.67542976 1.28604898 -2 1 C-1.67 1.33 -1.34 1.66 -1 2 C-0.67 1.34 -0.34 0.68 0 0 Z " fill="#EBDFCB" transform="translate(147,126)"/>
<path d="M0 0 C0.99 0.33 1.98 0.66 3 1 C4.84588976 7.18109371 2.82032466 12.41301264 1.0625 18.375 C0.62647461 19.90833984 0.62647461 19.90833984 0.18164062 21.47265625 C-0.5345431 23.98516965 -1.26200977 26.49382207 -2 29 C-2.66 29 -3.32 29 -4 29 C-3.91435791 28.44127197 -3.82871582 27.88254395 -3.74047852 27.30688477 C-3.34593582 24.72570708 -2.95420508 22.14410977 -2.5625 19.5625 C-2.42779297 18.68400391 -2.29308594 17.80550781 -2.15429688 16.90039062 C-1.30342713 11.27634911 -0.59276656 5.65717993 0 0 Z " fill="#F9F6F1" transform="translate(245,39)"/>
<path d="M0 0 C2 2 2 2 2.1953125 5.9140625 C2.18200376 7.48449351 2.15813602 9.05486221 2.125 10.625 C2.11597656 11.42679688 2.10695313 12.22859375 2.09765625 13.0546875 C2.07406223 15.03658523 2.03819065 17.01832981 2 19 C0.68 19 -0.64 19 -2 19 C-2 13.06 -2 7.12 -2 1 C-1.34 0.67 -0.68 0.34 0 0 Z " fill="#C5A03F" transform="translate(301,80)"/>
<path d="M0 0 C1.2065625 0.0309375 1.2065625 0.0309375 2.4375 0.0625 C1.4475 0.3925 0.4575 0.7225 -0.5625 1.0625 C-0.5625 1.7225 -0.5625 2.3825 -0.5625 3.0625 C0.0975 3.3925 0.7575 3.7225 1.4375 4.0625 C0.7775 4.0625 0.1175 4.0625 -0.5625 4.0625 C-0.5625 4.7225 -0.5625 5.3825 -0.5625 6.0625 C0.7575 6.3925 2.0775 6.7225 3.4375 7.0625 C2.674375 7.041875 1.91125 7.02125 1.125 7 C-1.66435786 6.93307159 -1.66435786 6.93307159 -4.5625 8.0625 C-4.5625 7.0725 -4.5625 6.0825 -4.5625 5.0625 C-5.2225 5.0625 -5.8825 5.0625 -6.5625 5.0625 C-6.5625 6.0525 -6.5625 7.0425 -6.5625 8.0625 C-7.2225 8.0625 -7.8825 8.0625 -8.5625 8.0625 C-8.5625 6.4125 -8.5625 4.7625 -8.5625 3.0625 C-9.2225 3.0625 -9.8825 3.0625 -10.5625 3.0625 C-10.5625 5.0425 -10.5625 7.0225 -10.5625 9.0625 C-11.2225 9.0625 -11.8825 9.0625 -12.5625 9.0625 C-12.5625 7.0825 -12.5625 5.1025 -12.5625 3.0625 C-13.2225 2.7325 -13.8825 2.4025 -14.5625 2.0625 C-11.9225 1.7325 -9.2825 1.4025 -6.5625 1.0625 C-6.5625 2.0525 -6.5625 3.0425 -6.5625 4.0625 C-5.9025 4.0625 -5.2425 4.0625 -4.5625 4.0625 C-4.2325 3.0725 -3.9025 2.0825 -3.5625 1.0625 C-2.5625 0.0625 -2.5625 0.0625 0 0 Z " fill="#ECE1CF" transform="translate(109.5625,133.9375)"/>
<path d="M0 0 C0.33 0 0.66 0 1 0 C1.38910684 2.93626007 1.76176981 5.87302605 2.125 8.8125 C2.23714844 9.64587891 2.34929687 10.47925781 2.46484375 11.33789062 C2.56152344 12.14033203 2.65820312 12.94277344 2.7578125 13.76953125 C2.8520752 14.50792236 2.94633789 15.24631348 3.04345703 16.00708008 C3 18 3 18 1 21 C0.67 19.68 0.34 18.36 0 17 C-0.66 17 -1.32 17 -2 17 C-4.42857143 9.57142857 -4.42857143 9.57142857 -3 6 C-3 6.66 -3 7.32 -3 8 C-2.34 8 -1.68 8 -1 8 C-1.020625 7.05125 -1.04125 6.1025 -1.0625 5.125 C-1 2 -1 2 0 0 Z " fill="#DEC999" transform="translate(232,47)"/>
<path d="M0 0 C-3.80298629 2.32182321 -7.92582641 2.81565253 -12.25 3.5 C-16.60563159 4.20401861 -20.90090455 4.93614838 -25.171875 6.0546875 C-28.50926253 6.87881789 -31.58232257 7.36867419 -35 7.625 C-35.94875 7.69976562 -36.8975 7.77453125 -37.875 7.8515625 C-38.926875 7.92503906 -38.926875 7.92503906 -40 8 C-38.68 7.67 -37.36 7.34 -36 7 C-36 6.34 -36 5.68 -36 5 C-29.19675835 3.32902837 -22.39640583 2.32918221 -15.453125 1.46484375 C-13.38786612 1.18682813 -11.32686362 0.8624671 -9.28515625 0.4453125 C-6.17626539 -0.16052264 -3.1576691 -0.06191508 0 0 Z " fill="#C0961E" transform="translate(154,140)"/>
<path d="M0 0 C-0.34013015 5.44208234 -3.70296528 8.93668198 -7 13 C-8.32 12.67 -9.64 12.34 -11 12 C-11.33 10.68 -11.66 9.36 -12 8 C-10.37982158 6.66081194 -8.75370657 5.3288031 -7.125 4 C-6.22007812 3.2575 -5.31515625 2.515 -4.3828125 1.75 C-2 0 -2 0 0 0 Z " fill="#F9F6F1" transform="translate(224,101)"/>
<path d="M0 0 C4.8274799 1.41292095 8.7162359 3.42974154 13 6 C12.34 7.65 11.68 9.3 11 11 C6.01987239 9.49087042 2.75740058 6.44338151 -1 3 C-0.67 2.01 -0.34 1.02 0 0 Z " fill="#FAF8F5" transform="translate(255,98)"/>
<path d="M0 0 C1.859375 0.2578125 1.859375 0.2578125 4 1 C5.265625 2.7421875 5.265625 2.7421875 6.25 4.875 C6.58515625 5.57367188 6.9203125 6.27234375 7.265625 6.9921875 C8 9 8 9 8 12 C6.02 12.33 4.04 12.66 2 13 C-0.28571429 4.57142857 -0.28571429 4.57142857 0 0 Z " fill="#F8F4EE" transform="translate(243,107)"/>
<path d="M0 0 C4.98012761 1.50912958 8.24259942 4.55661849 12 8 C11.01 9.32 10.02 10.64 9 12 C5.54804233 10.5741914 3.8985744 8.90253666 1.75 5.875 C0.96882812 4.78832031 0.96882812 4.78832031 0.171875 3.6796875 C-0.21484375 3.12539062 -0.6015625 2.57109375 -1 2 C-0.67 1.34 -0.34 0.68 0 0 Z " fill="#FBF9F6" transform="translate(252,102)"/>
<path d="M0 0 C0.66 0 1.32 0 2 0 C1.67 1.65 1.34 3.3 1 5 C1.99 5.33 2.98 5.66 4 6 C2.68 6 1.36 6 0 6 C-0.33 7.32 -0.66 8.64 -1 10 C0.65 10 2.3 10 4 10 C4 10.33 4 10.66 4 11 C2.02 11.33 0.04 11.66 -2 12 C-3.32 15.63 -4.64 19.26 -6 23 C-6.66 23 -7.32 23 -8 23 C-7.36744775 18.35891442 -6.15252592 14.2145599 -4.5625 9.8125 C-4.13066406 8.60207031 -3.69882813 7.39164062 -3.25390625 6.14453125 C-2 3 -2 3 0 0 Z " fill="#C39C31" transform="translate(211,75)"/>
<path d="M0 0 C1.32 0 2.64 0 4 0 C4.36098063 1.97793521 4.71361348 3.95739573 5.0625 5.9375 C5.25972656 7.03964844 5.45695313 8.14179687 5.66015625 9.27734375 C5.77230469 10.17582031 5.88445312 11.07429688 6 12 C5.67 12.33 5.34 12.66 5 13 C3.35 13 1.7 13 0 13 C0 8.71 0 4.42 0 0 Z " fill="#F4EFE4" transform="translate(238,108)"/>
<path d="M0 0 C1.32 0 2.64 0 4 0 C4 0.66 4 1.32 4 2 C3 3 3 3 1 4 C1 4.66 1 5.32 1 6 C2.32 6 3.64 6 5 6 C5 4.35 5 2.7 5 1 C5.99 0.67 6.98 0.34 8 0 C8.66 0.33 9.32 0.66 10 1 C10 2.98 10 4.96 10 7 C6.01803543 8.05404945 3.01804691 7.84098656 -1 7 C-1.04254356 5.00045254 -1.04080783 2.99958364 -1 1 C-0.67 0.67 -0.34 0.34 0 0 Z " fill="#EEE5D5" transform="translate(327,126)"/>
<path d="M0 0 C0.99 2.97 1.98 5.94 3 9 C-0.3 8.67 -3.6 8.34 -7 8 C-7 5.69 -7 3.38 -7 1 C-4 0 -4 0 0 0 Z " fill="#F4EEE3" transform="translate(265,81)"/>
<path d="M0 0 C1.32 0.33 2.64 0.66 4 1 C4 1.99 4 2.98 4 4 C9.94 4.33 15.88 4.66 22 5 C22 5.33 22 5.66 22 6 C15.07 6 8.14 6 1 6 C0.34 7.32 -0.32 8.64 -1 10 C-2.1875 7.25 -2.1875 7.25 -3 4 C-1.625 1.625 -1.625 1.625 0 0 Z " fill="#C6A245" transform="translate(418,80)"/>
<path d="M0 0 C0.33 0 0.66 0 1 0 C1.85298376 3.67387495 2.10789471 7.0447393 2.0625 10.8125 C2.05347656 11.78832031 2.04445312 12.76414062 2.03515625 13.76953125 C2.02355469 14.50558594 2.01195312 15.24164063 2 16 C1.34 16 0.68 16 0 16 C0 15.34 0 14.68 0 14 C-3.04913228 12.98888907 -3.04913228 12.98888907 -6 14 C-5.34 12.35 -4.68 10.7 -4 9 C-3.67 9 -3.34 9 -3 9 C-2.80083984 8.15115234 -2.80083984 8.15115234 -2.59765625 7.28515625 C-2.33275391 6.18494141 -2.33275391 6.18494141 -2.0625 5.0625 C-1.88847656 4.33160156 -1.71445313 3.60070313 -1.53515625 2.84765625 C-1 1 -1 1 0 0 Z " fill="#F4EFE2" transform="translate(229,39)"/>
<path d="M0 0 C0.99 0 1.98 0 3 0 C2.88610125 1.79240663 2.75852313 3.58394835 2.625 5.375 C2.55539063 6.37273437 2.48578125 7.37046875 2.4140625 8.3984375 C2 11 2 11 0 13 C-2.625 12.625 -2.625 12.625 -5 12 C-4.54738642 10.56068883 -4.08767021 9.12361001 -3.625 7.6875 C-3.24214844 6.48673828 -3.24214844 6.48673828 -2.8515625 5.26171875 C-2 3 -2 3 0 0 Z " fill="#FAF7F2" transform="translate(229,107)"/>
<path d="M0 0 C2.32804318 2.73887433 2.43143811 3.33109612 2.4375 6.75 C2.334375 7.9875 2.23125 9.225 2.125 10.5 C1.135 10.995 1.135 10.995 0.125 11.5 C0.125 9.19 0.125 6.88 0.125 4.5 C-0.865 4.83 -1.855 5.16 -2.875 5.5 C-3.41125 5.066875 -3.9475 4.63375 -4.5 4.1875 C-7.974443 1.71881682 -11.73292276 1.25230035 -15.875 0.5 C-15.875 0.17 -15.875 -0.16 -15.875 -0.5 C-4.45918367 -2.32653061 -4.45918367 -2.32653061 0 0 Z " fill="#C09721" transform="translate(80.875,62.5)"/>
<path d="M0 0 C0.33 0 0.66 0 1 0 C1 15.18 1 30.36 1 46 C0.34 46 -0.32 46 -1 46 C-1 33.13 -1 20.26 -1 7 C-1.99 7.495 -1.99 7.495 -3 8 C-1.125 2.25 -1.125 2.25 0 0 Z " fill="#F3EDE3" transform="translate(236,22)"/>
<path d="M0 0 C0.66 0 1.32 0 2 0 C3.98 4.62 5.96 9.24 8 14 C4 14 4 14 2.48046875 12.71484375 C-0.13228628 9.12329228 -1.03230001 7.67830024 -0.8125 3.0625 C-0.544375 2.051875 -0.27625 1.04125 0 0 Z " fill="#F9F6F1" transform="translate(221,56)"/>
<path d="M0 0 C1.32 0.33 2.64 0.66 4 1 C4 2.32 4 3.64 4 5 C4.33 4.01 4.66 3.02 5 2 C6.65 2 8.3 2 10 2 C9.67 2.66 9.34 3.32 9 4 C9 4.66 9 5.32 9 6 C8.01 6.495 8.01 6.495 7 7 C7.33 7.66 7.66 8.32 8 9 C5.0625 8.625 5.0625 8.625 2 8 C1.67 7.34 1.34 6.68 1 6 C0.01 6 -0.98 6 -2 6 C-1.34 4.02 -0.68 2.04 0 0 Z " fill="#ECE2CE" transform="translate(377,135)"/>
<path d="M0 0 C0.99 0 1.98 0 3 0 C3 3.96 3 7.92 3 12 C1.35 12 -0.3 12 -2 12 C-1.85831863 10.56208484 -1.71148957 9.1246763 -1.5625 7.6875 C-1.48128906 6.88699219 -1.40007812 6.08648437 -1.31640625 5.26171875 C-1 3 -1 3 0 0 Z " fill="#FCFAF7" transform="translate(234,108)"/>
<path d="M0 0 C0.4619308 8.18644031 0.56124172 15.86066514 -4 23 C-4.99 23.33 -5.98 23.66 -7 24 C-4.24186704 15.56011315 -4.24186704 15.56011315 -2.8125 12.25 C-1.45523584 8.49142233 -1.75018371 5.74944887 -3 2 C-3.99 1.67 -4.98 1.34 -6 1 C-3 0 -3 0 0 0 Z " fill="#BF9517" transform="translate(273,97)"/>
<path d="M0 0 C0.66 0 1.32 0 2 0 C5 3.46153846 5 3.46153846 5 6 C3.68 5.67 2.36 5.34 1 5 C1 5.66 1 6.32 1 7 C0.34 7 -0.32 7 -1 7 C-1.33 6.34 -1.66 5.68 -2 5 C-2.66 5 -3.32 5 -4 5 C-4 5.99 -4 6.98 -4 8 C-4.66 8 -5.32 8 -6 8 C-6 5.69 -6 3.38 -6 1 C-3.03 1.495 -3.03 1.495 0 2 C0 1.34 0 0.68 0 0 Z " fill="#E8DBC0" transform="translate(122,132)"/>
<path d="M0 0 C0 0.66 0 1.32 0 2 C0.66 2 1.32 2 2 2 C2 1.01 2 0.02 2 -1 C2.66 -1 3.32 -1 4 -1 C4.33 1.31 4.66 3.62 5 6 C4.34 6 3.68 6 3 6 C3 5.01 3 4.02 3 3 C2.34 3 1.68 3 1 3 C1 4.32 1 5.64 1 7 C0.34 7 -0.32 7 -1 7 C-1.66 5.35 -2.32 3.7 -3 2 C-3.33 3.65 -3.66 5.3 -4 7 C-4.66 6.34 -5.32 5.68 -6 5 C-6 4.01 -6 3.02 -6 2 C-6.66 1.67 -7.32 1.34 -8 1 C-2.25 -1.125 -2.25 -1.125 0 0 Z " fill="#EBE0CC" transform="translate(133,130)"/>
<path d="M0 0 C0.99 0 1.98 0 3 0 C7.76190476 4.76190476 7.76190476 4.76190476 9 8 C8.8125 10.1875 8.8125 10.1875 8 12 C7.01 12.33 6.02 12.66 5 13 C3.35 8.71 1.7 4.42 0 0 Z " fill="#C1982A" transform="translate(442,87)"/>
<path d="M0 0 C2.11723062 3.99816317 3.5185607 8.17648139 5 12.44140625 C5.96478435 15.17874519 5.96478435 15.17874519 8 18 C8 18.99 8 19.98 8 21 C5 20 5 20 3.4375 17.875 C0.42064546 11.84129091 -0.23216472 6.61669451 0 0 Z " fill="#C19823" transform="translate(203,103)"/>
<path d="M0 0 C2 2 2 2 2.125 4.9375 C2.08375 5.948125 2.0425 6.95875 2 8 C2 8.99 2 9.98 2 11 C0 12.6875 0 12.6875 -2 14 C-2.96805366 11.09583903 -3.05846827 9.92345144 -2.6875 7 C-2.60886719 6.319375 -2.53023438 5.63875 -2.44921875 4.9375 C-2 3 -2 3 0 0 Z " fill="#C49F3F" transform="translate(80,65)"/>
<path d="M0 0 C1.98 0 3.96 0 6 0 C6.98120464 3.05263664 6.98120464 4.94736336 6 8 C5.01 8 4.02 8 3 8 C3 6.68 3 5.36 3 4 C2.67 5.32 2.34 6.64 2 8 C1.34 8 0.68 8 0 8 C0 5.36 0 2.72 0 0 Z " fill="#E7DAC3" transform="translate(85,136)"/>
<path d="M0 0 C0.8125 1.6875 0.8125 1.6875 1 4 C-1.1875 6.8125 -1.1875 6.8125 -4 9 C-6.3125 8.8125 -6.3125 8.8125 -8 8 C-4.34782609 0 -4.34782609 0 0 0 Z " fill="#F1E9D7" transform="translate(258,63)"/>
<path d="M0 0 C7.32627475 -0.47266289 12.37384327 0.90133798 19 4 C18.01 5.485 18.01 5.485 17 7 C16.67 6.34 16.34 5.68 16 5 C13.64099204 4.54827507 11.38404458 4.23840446 9 4 C8.113125 3.9071875 7.22625 3.814375 6.3125 3.71875 C3.87581439 3.46954352 1.43850695 3.23060327 -1 3 C-0.67 2.01 -0.34 1.02 0 0 Z " fill="#C6A34D" transform="translate(339,60)"/>
<path d="M0 0 C2.0625 0.4375 2.0625 0.4375 4 1 C4.625 3.375 4.625 3.375 5 6 C4.34 6.66 3.68 7.32 3 8 C0.875 7.625 0.875 7.625 -1 7 C-1.04254356 5.00045254 -1.04080783 2.99958364 -1 1 C-0.67 0.67 -0.34 0.34 0 0 Z " fill="#E3D2AC" transform="translate(412,138)"/>
<path d="M0 0 C2.88437779 1.29299694 4.87219421 2.65941363 7 5 C6.67 5.99 6.34 6.98 6 8 C4.02 7.34 2.04 6.68 0 6 C-0.38218767 4.34385343 -0.71395102 2.67542976 -1 1 C-0.67 0.67 -0.34 0.34 0 0 Z " fill="#F8F4ED" transform="translate(216,69)"/>
<path d="M0 0 C2 2 2 2 2 6 C-2.07142857 9 -2.07142857 9 -5 9 C-5.33 8.01 -5.66 7.02 -6 6 C-4.02 4.02 -2.04 2.04 0 0 Z " fill="#F9F6F1" transform="translate(259,68)"/>
<path d="M0 0 C0.66 0 1.32 0 2 0 C2.33 0.99 2.66 1.98 3 3 C3.33 2.34 3.66 1.68 4 1 C4.66 1 5.32 1 6 1 C7.4606285 3.64738916 8 4.89448334 8 8 C7.34 8 6.68 8 6 8 C6 7.34 6 6.68 6 6 C5.34 6 4.68 6 4 6 C4 6.66 4 7.32 4 8 C2.68 7.67 1.36 7.34 0 7 C0 4.69 0 2.38 0 0 Z " fill="#E5D7BC" transform="translate(69,136)"/>
<path d="M0 0 C0.99 0.33 1.98 0.66 3 1 C3 1.99 3 2.98 3 4 C0.625 5.75 0.625 5.75 -2 7 C-2.66 6.67 -3.32 6.34 -4 6 C-6.09821215 6.39938767 -6.09821215 6.39938767 -8 7 C-5.42215154 4.35247996 -3.08351902 2.05567935 0 0 Z " fill="#C09723" transform="translate(316,59)"/>
<path d="M0 0 C1.76462683 3.08809695 2 4.23312136 2 8 C3.65 8 5.3 8 7 8 C5 10 5 10 3.12060547 10.22705078 C2.37697754 10.21657715 1.63334961 10.20610352 0.8671875 10.1953125 C-0.34130859 10.18564453 -0.34130859 10.18564453 -1.57421875 10.17578125 C-2.41597656 10.15902344 -3.25773438 10.14226562 -4.125 10.125 C-5.39923828 10.11146484 -5.39923828 10.11146484 -6.69921875 10.09765625 C-8.79959884 10.07405647 -10.89983444 10.03818483 -13 10 C-13 9.67 -13 9.34 -13 9 C-6.565 8.505 -6.565 8.505 0 8 C0 5.36 0 2.72 0 0 Z " fill="#C0971D" transform="translate(243,112)"/>
<path d="M0 0 C1.65 0.33 3.3 0.66 5 1 C5 2.65 5 4.3 5 6 C4.34 5.34 3.68 4.68 3 4 C2.87882812 4.91523437 2.75765625 5.83046875 2.6328125 6.7734375 C2.46523438 7.96195312 2.29765625 9.15046875 2.125 10.375 C1.96257812 11.55835937 1.80015625 12.74171875 1.6328125 13.9609375 C1 17 1 17 -1 19 C-0.7525 17.63875 -0.7525 17.63875 -0.5 16.25 C0.28873311 10.86217525 0.08025923 5.43087444 0 0 Z " fill="#BE9314" transform="translate(356,70)"/>
<path d="M0 0 C2.475 0.495 2.475 0.495 5 1 C5 2.65 5 4.3 5 6 C3.35 6.33 1.7 6.66 0 7 C0 4.69 0 2.38 0 0 Z " fill="#E9DCC2" transform="translate(341,128)"/>
<path d="M0 0 C0.33 1.32 0.66 2.64 1 4 C0.38125 3.835 -0.2375 3.67 -0.875 3.5 C-2.96063386 2.92365356 -2.96063386 2.92365356 -5 3 C-5.45375 3.474375 -5.9075 3.94875 -6.375 4.4375 C-8.22977487 6.22093737 -9.50135592 6.5691993 -12 7 C-11.7421875 5.109375 -11.7421875 5.109375 -11 3 C-9.2578125 1.953125 -9.2578125 1.953125 -7.125 1.25 C-6.42632812 1.00765625 -5.72765625 0.7653125 -5.0078125 0.515625 C-3 0 -3 0 0 0 Z " fill="#C09723" transform="translate(397,59)"/>
<path d="M0 0 C2 2 2 2 2.046875 4.8984375 C1.89992187 6.61933594 1.89992187 6.61933594 1.75 8.375 C1.61851562 10.08816406 1.61851562 10.08816406 1.484375 11.8359375 C1.04640594 14.69686441 0.47474241 16.54612533 -1 19 C-2.00053923 14.39612021 -1.86574911 10.75549487 -1.0625 6.125 C-0.86785156 4.97257812 -0.67320312 3.82015625 -0.47265625 2.6328125 C-0.31667969 1.76398437 -0.16070312 0.89515625 0 0 Z " fill="#D7BF89" transform="translate(243,42)"/>
<path d="M0 0 C0.66 0 1.32 0 2 0 C2 0.66 2 1.32 2 2 C2.66 2 3.32 2 4 2 C4 1.34 4 0.68 4 0 C4.66 0 5.32 0 6 0 C6 2.31 6 4.62 6 7 C5.34 7 4.68 7 4 7 C4 6.01 4 5.02 4 4 C3.34 4 2.68 4 2 4 C2 4.99 2 5.98 2 7 C1.34 7 0.68 7 0 7 C0 4.69 0 2.38 0 0 Z " fill="#E9DECA" transform="translate(165,125)"/>
<path d="M0 0 C2.14336161 3.4766338 2.21277626 6.21229195 2.125 10.25 C2.10695313 11.32765625 2.08890625 12.4053125 2.0703125 13.515625 C2.04710937 14.33546875 2.02390625 15.1553125 2 16 C-0.76223278 13.23776722 -0.57856291 10.79293383 -1 7 C-1.66 7.66 -2.32 8.32 -3 9 C-2.5020163 5.26512223 -2.12508244 3.18762365 0 0 Z " fill="#BF9417" transform="translate(373,73)"/>
<path d="M0 0 C1.98 0.99 3.96 1.98 6 3 C5.67 3.99 5.34 4.98 5 6 C2.69 5.67 0.38 5.34 -2 5 C-1.125 1.125 -1.125 1.125 0 0 Z " fill="#F6F2EA" transform="translate(214,75)"/>
<path d="M0 0 C0.99 0 1.98 0 3 0 C3.08131463 1.43655854 3.13933559 2.8744483 3.1875 4.3125 C3.22230469 5.11300781 3.25710938 5.91351563 3.29296875 6.73828125 C2.93801608 9.47851584 2.10633718 10.29171079 0 12 C-1.1671568 8.49852959 -1.13357453 5.67329964 -1 2 C-0.67 1.34 -0.34 0.68 0 0 Z " fill="#C49F41" transform="translate(359,72)"/>
<path d="M0 0 C4.02550319 1.3418344 4.88285636 3.4227573 7 7 C7 7.66 7 8.32 7 9 C4.04590299 7.62845496 1.55991624 6.01136276 -1 4 C-0.67 2.68 -0.34 1.36 0 0 Z " fill="#F9F7F2" transform="translate(218,64)"/>
<path d="M0 0 C0.66 0.99 1.32 1.98 2 3 C1.34 3 0.68 3 0 3 C-0.33 4.65 -0.66 6.3 -1 8 C-1.66 8 -2.32 8 -3 8 C-3.33 9.98 -3.66 11.96 -4 14 C-4.66 14 -5.32 14 -6 14 C-5.41162314 9.29298514 -3.44104424 3.44104424 0 0 Z " fill="#C0971F" transform="translate(218,60)"/>
<path d="M0 0 C0.99 0 1.98 0 3 0 C3 0.99 3 1.98 3 3 C3.66 3.33 4.32 3.66 5 4 C6.0409066 5.64142963 7.04504326 7.30712215 8 9 C5 9 5 9 2.3125 6.75 C0 4 0 4 0 0 Z " fill="#C5A142" transform="translate(33,84)"/>
<path d="M0 0 C0.99 0.33 1.98 0.66 3 1 C4.6875 4.5625 4.6875 4.5625 6 8 C5 9 5 9 2 10 C0.68373308 6.38026598 0 3.90432869 0 0 Z " fill="#C29B38" transform="translate(177,74)"/>
<path d="M0 0 C4.455 0.99 4.455 0.99 9 2 C8.67 3.32 8.34 4.64 8 6 C5.125 5.25 5.125 5.25 2 4 C1.34 2.68 0.68 1.36 0 0 Z " fill="#F7F3EC" transform="translate(261,97)"/>
<path d="M0 0 C3.60153162 1.65475777 5.2974477 3.08925078 6.8125 6.6875 C7.204375 7.780625 7.59625 8.87375 8 10 C4.20401451 8.50871999 2.28279601 6.34266559 0 3 C0 2.01 0 1.02 0 0 Z " fill="#C29A29" transform="translate(207,106)"/>
<path d="M0 0 C0.33 0 0.66 0 1 0 C0.91253716 1.43861294 0.80434652 2.87597508 0.6875 4.3125 C0.62949219 5.11300781 0.57148438 5.91351563 0.51171875 6.73828125 C-0.08206694 9.36272334 -0.95780294 10.30820672 -3 12 C-4.46911544 8.18029984 -3.52561108 5.69358471 -2 2 C-1.34 1.34 -0.68 0.68 0 0 Z " fill="#C09728" transform="translate(360,79)"/>
<path d="M0 0 C0.598125 0.350625 1.19625 0.70125 1.8125 1.0625 C1.1525 2.7125 0.4925 4.3625 -0.1875 6.0625 C-1.1775 5.7325 -2.1675 5.4025 -3.1875 5.0625 C-4.375 2.5 -4.375 2.5 -5.1875 0.0625 C-2.1875 -0.9375 -2.1875 -0.9375 0 0 Z " fill="#E5D7BC" transform="translate(145.1875,127.9375)"/>
<path d="M0 0 C0.99 0.33 1.98 0.66 3 1 C3.33 3.31 3.66 5.62 4 8 C3.34 8 2.68 8 2 8 C1.67 7.34 1.34 6.68 1 6 C0.34 6.66 -0.32 7.32 -1 8 C-1.04241723 5.66705225 -1.04092937 3.33297433 -1 1 C-0.67 0.67 -0.34 0.34 0 0 Z " fill="#EBDFC8" transform="translate(304,125)"/>
<path d="M0 0 C0 1.65 0 3.3 0 5 C-0.33 3.68 -0.66 2.36 -1 1 C-2.32 1 -3.64 1 -5 1 C-5 5.29 -5 9.58 -5 14 C-5.33 14 -5.66 14 -6 14 C-6 9.71 -6 5.42 -6 1 C-6.99 0.67 -7.98 0.34 -9 0 C-5.52176885 -1.15941038 -3.54104422 -0.70820884 0 0 Z " fill="#C6A24C" transform="translate(243,107)"/>
<path d="M0 0 C0 0.99 0 1.98 0 3 C-3.08809695 4.76462683 -4.23312136 5 -8 5 C-8 4.01 -8 3.02 -8 2 C-5.09399739 0.74335022 -3.20395416 0 0 0 Z " fill="#F8F4EE" transform="translate(214,97)"/>
<path d="M0 0 C7.09821429 0.66964286 7.09821429 0.66964286 10 4 C8.54364629 4.22174933 7.08477044 4.42698698 5.625 4.625 C4.81289063 4.74101563 4.00078125 4.85703125 3.1640625 4.9765625 C2.44992187 4.98429687 1.73578125 4.99203125 1 5 C0.34 4.34 -0.32 3.68 -1 3 C-0.67 2.01 -0.34 1.02 0 0 Z " fill="#C49E3E" transform="translate(330,94)"/>
<path d="M0 0 C6.75 1.625 6.75 1.625 9 5 C8.01 5 7.02 5 6 5 C5.67 5.66 5.34 6.32 5 7 C3.29115995 5.37660195 1.62553283 3.70680947 0 2 C0 1.34 0 0.68 0 0 Z " fill="#BF961F" transform="translate(27,79)"/>
<path d="M0 0 C2.31 0.33 4.62 0.66 7 1 C7 1.99 7 2.98 7 4 C4.36 4 1.72 4 -1 4 C-0.67 2.68 -0.34 1.36 0 0 Z " fill="#FAF7F2" transform="translate(211,81)"/>
<path d="M0 0 C1.32 0.33 2.64 0.66 4 1 C4 3.31 4 5.62 4 8 C2.66666667 8 1.33333333 8 0 8 C0 5.36 0 2.72 0 0 Z " fill="#C5A046" transform="translate(369,79)"/>
<path d="M0 0 C0.99 0 1.98 0 3 0 C2.67 1.65 2.34 3.3 2 5 C-2.455 5.495 -2.455 5.495 -7 6 C-7 4.68 -7 3.36 -7 2 C-4.69 2 -2.38 2 0 2 C0 1.34 0 0.68 0 0 Z " fill="#CCAC62" transform="translate(233,79)"/>
<path d="M0 0 C0.99 0.33 1.98 0.66 3 1 C2.67 2.32 2.34 3.64 2 5 C0.35 5.33 -1.3 5.66 -3 6 C-3 3 -3 3 -1.5 1.3125 C-0.7575 0.6628125 -0.7575 0.6628125 0 0 Z " fill="#FBF9F6" transform="translate(260,75)"/>
<path d="M0 0 C0 1.65 0 3.3 0 5 C-1.65 5.66 -3.3 6.32 -5 7 C-5.66 6.34 -6.32 5.68 -7 5 C-2.25 0 -2.25 0 0 0 Z " fill="#C39D35" transform="translate(152,59)"/>
<path d="M0 0 C0.33 1.32 0.66 2.64 1 4 C-2.3 3.67 -5.6 3.34 -9 3 C-9 2.34 -9 1.68 -9 1 C-2.25 0 -2.25 0 0 0 Z " fill="#FCFAF8" transform="translate(267,86)"/>
<path d="M0 0 C3.3 0 6.6 0 10 0 C10 0.66 10 1.32 10 2 C6.7 2.33 3.4 2.66 0 3 C0 2.01 0 1.02 0 0 Z " fill="#FAF8F4" transform="translate(208,87)"/>
<path d="M0 0 C1.32 0.33 2.64 0.66 4 1 C4 2.98 4 4.96 4 7 C2.68 7 1.36 7 0 7 C0 4.69 0 2.38 0 0 Z " fill="#EDE3D2" transform="translate(406,139)"/>
<path d="M0 0 C0.33 0.99 0.66 1.98 1 3 C1.99 3 2.98 3 4 3 C4.33 2.34 4.66 1.68 5 1 C4.67 3.31 4.34 5.62 4 8 C3.34 8 2.68 8 2 8 C1.67 7.01 1.34 6.02 1 5 C0.34 5.66 -0.32 6.32 -1 7 C-0.67 4.69 -0.34 2.38 0 0 Z " fill="#F0E7D9" transform="translate(362,132)"/>
<path d="M0 0 C0.99 0 1.98 0 3 0 C3 3.11257569 2.82638376 5.10765685 2 8 C1.01 8 0.02 8 -1 8 C-1 4.88742431 -0.82638376 2.89234315 0 0 Z " fill="#E9DEC9" transform="translate(179,125)"/>
<path d="M0 0 C1.485 0.99 1.485 0.99 3 2 C3.99 1.67 4.98 1.34 6 1 C5.690625 1.598125 5.38125 2.19625 5.0625 2.8125 C3.89790296 5.08956772 3.89790296 5.08956772 3 8 C2.34 8 1.68 8 1 8 C0.67 5.36 0.34 2.72 0 0 Z " fill="#E7D9C2" transform="translate(347,128)"/>
<path d="M0 0 C2.97 0.495 2.97 0.495 6 1 C6 1.66 6 2.32 6 3 C5.34 3 4.68 3 4 3 C3.67 4.65 3.34 6.3 3 8 C2.34 8 1.68 8 1 8 C1.33 6.02 1.66 4.04 2 2 C1.34 2 0.68 2 0 2 C0 1.34 0 0.68 0 0 Z " fill="#E8DBC4" transform="translate(355,130)"/>
<path d="M0 0 C1.32 0 2.64 0 4 0 C4 0.66 4 1.32 4 2 C3.01 2 2.02 2 1 2 C1.99 3.485 1.99 3.485 3 5 C3.33 5.66 3.66 6.32 4 7 C2.35 6.67 0.7 6.34 -1 6 C-1.042721 4.33388095 -1.04063832 2.66617115 -1 1 C-0.67 0.67 -0.34 0.34 0 0 Z " fill="#EADFCB" transform="translate(160,125)"/>
<path d="M0 0 C0.99 0 1.98 0 3 0 C5 2 5 2 7 5 C6.67 5.66 6.34 6.32 6 7 C5.01 7 4.02 7 3 7 C2.01 4.69 1.02 2.38 0 0 Z " fill="#C39E41" transform="translate(442,87)"/>
<path d="M0 0 C1.65 0 3.3 0 5 0 C5.33 0.66 5.66 1.32 6 2 C5.34 2 4.68 2 4 2 C4 3.65 4 5.3 4 7 C3.01 7.495 3.01 7.495 2 8 C2 6.02 2 4.04 2 2 C1.34 2 0.68 2 0 2 C0 1.34 0 0.68 0 0 Z " fill="#E8DCC5" transform="translate(320,125)"/>
<path d="M0 0 C0.66 0 1.32 0 2 0 C2 2.64 2 5.28 2 8 C1.01 7.67 0.02 7.34 -1 7 C-1 6.01 -1 5.02 -1 4 C-1.99 3.67 -2.98 3.34 -4 3 C-3.01 3 -2.02 3 -1 3 C-0.67 2.01 -0.34 1.02 0 0 Z " fill="#BF951C" transform="translate(373,135)"/>
<path d="M0 0 C2.80045623 3.14591933 3.35261589 5.067064 3.1875 9.25 C3.16042969 10.14203125 3.13335937 11.0340625 3.10546875 11.953125 C3.07066406 12.62859375 3.03585937 13.3040625 3 14 C2.67 14 2.34 14 2 14 C2 11.03 2 8.06 2 5 C1.01 5 0.02 5 -1 5 C-0.67 3.35 -0.34 1.7 0 0 Z " fill="#CAA857" transform="translate(271,92)"/>
<path d="M0 0 C1.39195915 4.17587745 -0.17676781 6.13474776 -2 10 C-2.99 9.67 -3.98 9.34 -5 9 C-3.35 6.03 -1.7 3.06 0 0 Z " fill="#C19B39" transform="translate(157,88)"/>
<path d="M0 0 C2.0625 0.4375 2.0625 0.4375 4 1 C3.34 2.65 2.68 4.3 2 6 C1.34 6 0.68 6 0 6 C-0.38218767 4.34385343 -0.71395102 2.67542976 -1 1 C-0.67 0.67 -0.34 0.34 0 0 Z " fill="#DCC895" transform="translate(333,126)"/>
<path d="M0 0 C2.31 1.98 4.62 3.96 7 6 C6.67 6.66 6.34 7.32 6 8 C3.69 6.02 1.38 4.04 -1 2 C-0.67 1.34 -0.34 0.68 0 0 Z " fill="#BE9311" transform="translate(211,123)"/>
<path d="M0 0 C0.33 1.32 0.66 2.64 1 4 C2.32 4 3.64 4 5 4 C5.33 3.34 5.66 2.68 6 2 C6 2.99 6 3.98 6 5 C3.1875 5.625 3.1875 5.625 0 6 C-0.99 5.34 -1.98 4.68 -3 4 C-2.67 3.34 -2.34 2.68 -2 2 C-1.34 2 -0.68 2 0 2 C0 1.34 0 0.68 0 0 Z " fill="#C7A451" transform="translate(405,142)"/>
<path d="M0 0 C0.66 0 1.32 0 2 0 C5 3.46153846 5 3.46153846 5 6 C3.35 6 1.7 6 0 6 C0 4.02 0 2.04 0 0 Z " fill="#EEE5D5" transform="translate(122,132)"/>
<path d="M0 0 C0.66 0 1.32 0 2 0 C2 1.65 2 3.3 2 5 C2.99 4.67 3.98 4.34 5 4 C4.67 4.99 4.34 5.98 4 7 C2.68 6.67 1.36 6.34 0 6 C0 4.02 0 2.04 0 0 Z " fill="#EDE4D3" transform="translate(293,127)"/>
<path d="M0 0 C1.65 0.33 3.3 0.66 5 1 C4.67 2.32 4.34 3.64 4 5 C1.525 4.01 1.525 4.01 -1 3 C-0.67 2.01 -0.34 1.02 0 0 Z " fill="#C49F3A" transform="translate(410,95)"/>
<path d="M0 0 C0.66 0.33 1.32 0.66 2 1 C2.73075648 3.3140622 3.40138258 5.64828869 4 8 C2.02 6.68 0.04 5.36 -2 4 C-1.34 2.68 -0.68 1.36 0 0 Z " fill="#C49F3A" transform="translate(284,59)"/>
<path d="M0 0 C2.31 0.33 4.62 0.66 7 1 C4.03312999 2.64826111 1.34373475 3.44271087 -2 4 C-2 3.34 -2 2.68 -2 2 C-1.34 2 -0.68 2 0 2 C0 1.34 0 0.68 0 0 Z " fill="#C6A243" transform="translate(275,140)"/>
<path d="M0 0 C0 3 0 3 -2.5 5.6875 C-3.325 6.450625 -4.15 7.21375 -5 8 C-5.33 7.01 -5.66 6.02 -6 5 C-4.02 3.35 -2.04 1.7 0 0 Z " fill="#C7A443" transform="translate(465,113)"/>
<path d="M0 0 C0.33 0 0.66 0 1 0 C0.67 2.31 0.34 4.62 0 7 C-1.32 7 -2.64 7 -4 7 C-3.34 6.67 -2.68 6.34 -2 6 C-1.27306096 4.02111039 -0.60183749 2.02045442 0 0 Z " fill="#C19720" transform="translate(268,104)"/>
<path d="M0 0 C0.33 0.99 0.66 1.98 1 3 C0.01 4.485 0.01 4.485 -1 6 C-2.32 6 -3.64 6 -5 6 C-4.67 4.68 -4.34 3.36 -4 2 C-3.67 2.66 -3.34 3.32 -3 4 C-2.34 4 -1.68 4 -1 4 C-0.67 2.68 -0.34 1.36 0 0 Z " fill="#C0961E" transform="translate(416,90)"/>
<path d="M0 0 C1.60031344 3.20062687 0.03173691 5.72271806 -1 9 C-1.66 9 -2.32 9 -3 9 C-2.5020163 5.26512223 -2.12508244 3.18762365 0 0 Z " fill="#BF9414" transform="translate(206,89)"/>
<path d="M0 0 C0.33 0.99 0.66 1.98 1 3 C0.01 3.99 -0.98 4.98 -2 6 C-2.66 5.67 -3.32 5.34 -4 5 C-2.25 1.125 -2.25 1.125 0 0 Z " fill="#C49F40" transform="translate(326,68)"/>
</svg>
