<svg width="32" height="32" viewBox="0 0 32 32" fill="none" xmlns="http://www.w3.org/2000/svg">
  <path d="M16 2C8.268 2 2 8.268 2 16s6.268 14 14 14 14-6.268 14-14S23.732 2 16 2zm7 14.5c0 .828-.672 1.5-1.5 1.5h-1.5v2c0 .828-.672 1.5-1.5 1.5h-5c-.828 0-1.5-.672-1.5-1.5v-2H10.5c-.828 0-1.5-.672-1.5-1.5v-3c0-.828.672-1.5 1.5-1.5H12v-2c0-.828.672-1.5 1.5-1.5h5c.828 0 1.5.672 1.5 1.5v2h1.5c.828 0 1.5.672 1.5 1.5v3z" fill="#4299E1"/>
  <path d="M18.5 12h-5c-.276 0-.5.224-.5.5v2h6v-2c0-.276-.224-.5-.5-.5zm0 5h-5c-.276 0-.5.224-.5.5v2h6v-2c0-.276-.224-.5-.5-.5z" fill="white"/>
</svg>