<?xml version="1.0" encoding="iso-8859-1"?>
<!-- Uploaded to: SVG Repo, www.svgrepo.com, Generator: SVG Repo Mixer Tools -->
<!DOCTYPE svg PUBLIC "-//W3C//DTD SVG 1.1//EN" "http://www.w3.org/Graphics/SVG/1.1/DTD/svg11.dtd">
<svg fill="#000000" version="1.1" id="Capa_1" xmlns="http://www.w3.org/2000/svg" xmlns:xlink="http://www.w3.org/1999/xlink" 
	 width="800px" height="800px" viewBox="0 0 56.48 56.48" xml:space="preserve"
	>
<g>
	<path d="M30.898,39.49c0.508,0.468,0.374,1.213-0.221,1.532c-0.445,0.239-1.008,0.168-1.377-0.175
		c-0.188-0.172-0.299-0.394-0.261-0.65c-0.079-0.542,0.486-0.956,0.927-0.991C30.322,39.179,30.637,39.249,30.898,39.49z
		 M17.969,35.125c0.617-0.511,0.623-1.499,0.081-2.019c-0.264-0.253-0.577-0.429-0.952-0.464c-0.209-0.02-0.418-0.045-0.628-0.055
		c-0.204-0.01-0.408-0.002-0.618-0.002c0,0.982,0,1.978,0,3.002c0.121-0.015,0.229-0.031,0.337-0.037
		c0.273-0.014,0.549-0.007,0.821-0.035C17.364,35.48,17.691,35.356,17.969,35.125z M24.162,39.097
		c-0.428-0.191-0.853-0.156-1.261,0.059c-0.212,0.111-0.334,0.376-0.293,0.572c0.657,0,1.314,0,1.981,0
		C24.488,39.362,24.386,39.197,24.162,39.097z M17.452,38.193c-0.515-0.197-1.063-0.08-1.597-0.182c0,1.024,0,2.023,0,3
		c0.247,0,0.487-0.002,0.728,0c0.327,0.004,0.641-0.051,0.948-0.17c0.764-0.299,1.063-1.009,0.844-1.74
		C18.234,38.636,17.89,38.362,17.452,38.193z M25.311,32.64c-0.343,0.002-0.687,0-1.032,0c0,0.369,0,0.744,0,1.136
		c0.268,0,0.518,0.002,0.769,0c0.242-0.003,0.463-0.073,0.667-0.208c0.213-0.141,0.271-0.538,0.063-0.715
		C25.641,32.735,25.502,32.638,25.311,32.64z M56.48,11.393v33.695c0,0.803-0.65,1.454-1.454,1.454H1.454
		C0.65,46.542,0,45.89,0,45.087V11.393c0-0.803,0.65-1.454,1.454-1.454h53.572C55.83,9.939,56.48,10.59,56.48,11.393z M14.51,36.304
		c0.792-0.01,1.583-0.03,2.375-0.024c0.522,0.003,1.024-0.076,1.507-0.267c0.437-0.174,0.819-0.428,1.099-0.812
		c0.378-0.521,0.442-1.102,0.238-1.695c-0.181-0.529-0.572-0.891-1.059-1.149c-0.572-0.306-1.193-0.431-1.838-0.438
		c-0.773-0.008-1.549-0.001-2.322-0.001C14.51,33.378,14.51,34.841,14.51,36.304z M19.607,38.695
		c-0.36-0.639-0.965-0.971-1.643-1.162c-0.461-0.13-0.941-0.156-1.422-0.154c-0.678,0.004-1.355,0.002-2.033,0.002
		c0,1.461,0,2.924,0,4.387c0.874-0.008,1.749-0.019,2.624-0.028c0.437-0.006,0.858-0.093,1.261-0.265
		c0.59-0.25,1.089-0.603,1.323-1.235C19.914,39.708,19.882,39.181,19.607,38.695z M22.586,40.371c1.068,0,2.138,0,3.221,0
		c0.033-0.385-0.032-0.736-0.195-1.066c-0.239-0.483-0.662-0.736-1.158-0.875c-0.364-0.103-0.734-0.131-1.117-0.097
		c-0.631,0.06-1.203,0.228-1.661,0.695c-0.38,0.389-0.518,0.847-0.405,1.378c0.091,0.43,0.355,0.742,0.708,0.98
		c0.432,0.295,0.922,0.418,1.436,0.435c0.361,0.012,0.725,0.006,1.083-0.031c0.309-0.032,0.611-0.118,0.914-0.19
		c0.034-0.008,0.078-0.072,0.08-0.111c0.008-0.227,0.003-0.452,0.003-0.674c-0.151,0.068-0.292,0.15-0.443,0.193
		c-0.582,0.16-1.175,0.219-1.771,0.088C22.937,41.021,22.571,40.787,22.586,40.371z M21.851,36.241c0-1.457,0-2.899,0-4.34
		c-0.448,0-0.886,0-1.319,0c0,1.452,0,2.893,0,4.34C20.974,36.241,21.408,36.241,21.851,36.241z M27.543,36.257
		c-0.461-0.692-0.749-1.467-1.267-2.09c0.308-0.083,0.601-0.186,0.793-0.486c0.143-0.225,0.176-0.457,0.169-0.709
		c-0.009-0.342-0.188-0.594-0.462-0.756c-0.421-0.248-0.893-0.332-1.382-0.328c-0.28,0.002-0.562,0-0.842,0
		c-0.521,0-1.044,0-1.576,0c0,1.472,0,2.926,0,4.375c0.438,0,0.865,0,1.303,0c0-0.582,0-1.15,0-1.73
		c0.198,0,0.388-0.012,0.574,0.002c0.228,0.018,0.425,0.112,0.539,0.32c0.241,0.438,0.476,0.881,0.707,1.326
		c0.035,0.067,0.068,0.097,0.147,0.097c0.397-0.005,0.795-0.002,1.191-0.003C27.468,36.275,27.497,36.265,27.543,36.257z
		 M32.467,39.808c-0.054-0.295-0.172-0.56-0.375-0.784c-0.319-0.358-0.742-0.527-1.197-0.562c-0.656-0.048-1.312-0.019-1.87,0.502
		c0-0.666,0-1.295,0-1.924c-0.448,0-0.866,0-1.281,0c0,1.581,0,3.15,0,4.719c0.436,0,0.859,0,1.296,0c0-0.11,0-0.216,0-0.324
		c0.028,0.007,0.053,0.005,0.064,0.016c0.3,0.286,0.682,0.391,1.072,0.426c0.446,0.041,0.899,0.029,1.32-0.174
		c0.393-0.189,0.691-0.464,0.86-0.875C32.493,40.496,32.528,40.158,32.467,39.808z M29.573,33.716c0-0.367,0-0.717,0-1.078
		c0.774,0,1.537,0,2.306,0c0-0.254,0-0.498,0-0.739c-1.174,0-2.338,0-3.5,0c0,1.461,0,2.911,0,4.37c1.156,0,2.308,0,3.468,0
		c0-0.254,0-0.498,0-0.752c-0.765,0-1.519,0-2.275,0c0-0.353,0-0.691,0-1.049c0.727,0,1.445,0,2.163,0c0-0.256,0-0.496,0-0.752
		C31.01,33.716,30.29,33.716,29.573,33.716z M36.004,38.583c-0.429,0-0.847,0-1.262,0c0,1.075,0,2.138,0,3.207
		c0.421,0,0.836,0,1.262,0C36.004,40.712,36.004,39.646,36.004,38.583z M36.002,37.892c0-0.283,0-0.555,0-0.824
		c-0.426,0-0.841,0-1.261,0c0,0.277,0,0.546,0,0.824C35.172,37.892,35.588,37.892,36.002,37.892z M33.668,33.695
		c0.066-0.273,0.195-0.51,0.405-0.688c0.364-0.311,0.812-0.398,1.272-0.418c0.211-0.01,0.424,0.006,0.635,0.028
		c0.275,0.029,0.552,0.077,0.853,0.121c0.034-0.185,0.073-0.394,0.105-0.601c0.005-0.021-0.029-0.062-0.056-0.071
		c-0.336-0.122-0.678-0.218-1.035-0.234c-0.268-0.011-0.535-0.015-0.801,0.001c-0.261,0.018-0.524,0.042-0.777,0.104
		c-0.522,0.126-1.021,0.314-1.43,0.69c-0.213,0.196-0.387,0.414-0.488,0.685c-0.121,0.324-0.17,0.654-0.12,1.007
		c0.06,0.424,0.219,0.795,0.507,1.106c0.355,0.383,0.805,0.621,1.301,0.758c0.514,0.145,1.037,0.215,1.576,0.187
		c0.42-0.022,0.83-0.083,1.249-0.194c-0.022-0.24-0.044-0.475-0.065-0.709c-0.221,0.03-0.416,0.075-0.615,0.082
		c-0.518,0.014-1.034,0.019-1.537-0.142c-0.399-0.127-0.742-0.325-0.924-0.722C33.575,34.365,33.586,34.033,33.668,33.695z
		 M37.076,27.582c0.189-0.185,0.376-0.374,0.547-0.578c0.219-0.262,0.438-0.528,0.624-0.815c0.313-0.485,0.562-1.003,0.746-1.556
		c0.197-0.587,0.3-1.189,0.324-1.801c0.016-0.409-0.021-0.826-0.087-1.23c-0.104-0.637-0.316-1.247-0.613-1.819
		c-0.302-0.579-0.664-1.123-1.105-1.603c-0.502-0.544-1.047-1.042-1.66-1.463c-0.736-0.505-1.516-0.936-2.353-1.25
		c-0.459-0.172-0.925-0.338-1.397-0.463c-0.57-0.15-1.152-0.259-1.732-0.374c-0.266-0.053-0.535-0.086-0.805-0.114
		c-0.229-0.023-0.457-0.027-0.719-0.042c0.059,0.116-0.063,0.251,0.127,0.3c0.43,0.112,0.868,0.205,1.28,0.366
		c0.51,0.2,1.018,0.425,1.485,0.704c0.678,0.402,1.288,0.898,1.78,1.525c0.287,0.367,0.559,0.748,0.746,1.173
		c0.18,0.404,0.347,0.817,0.482,1.238c0.096,0.291,0.145,0.598,0.193,0.901c0.059,0.371,0.121,0.744,0.137,1.119
		c0.018,0.433,0.006,0.869-0.027,1.301c-0.031,0.402-0.091,0.804-0.174,1.198c-0.185,0.87-0.533,1.676-1.029,2.414
		c-0.361,0.539-0.795,1.016-1.289,1.442c-0.476,0.413-1,0.751-1.562,1.021c-0.773,0.371-1.595,0.604-2.446,0.699
		c-0.45,0.051-0.909,0.047-1.363,0.032c-0.476-0.017-0.955-0.054-1.428-0.116c-0.493-0.066-0.987-0.146-1.468-0.27
		c-0.815-0.208-1.616-0.475-2.363-0.873c-0.463-0.247-0.925-0.499-1.363-0.785c-0.519-0.339-0.988-0.743-1.399-1.214
		c-0.445-0.508-0.798-1.062-0.945-1.73c-0.099-0.451-0.07-0.893,0.141-1.31c0.268-0.528,0.685-0.92,1.16-1.258
		c0.49-0.347,1.017-0.623,1.568-0.858c0.792-0.339,1.61-0.604,2.458-0.765c0.563-0.107,1.128-0.216,1.697-0.286
		c0.541-0.066,1.087-0.099,1.633-0.117c0.447-0.015,0.896,0.015,1.346,0.024c0.046,0,0.094-0.004,0.149-0.007
		c0-1.971,0-3.931,0-5.891c-0.29,0-0.58,0-0.871,0c-0.015,0.009-0.029,0.026-0.044,0.027c-0.399,0.021-0.796,0.037-1.195,0.062
		c-0.219,0.013-0.438,0.031-0.655,0.063c-0.339,0.049-0.676,0.105-1.011,0.17c-0.449,0.087-0.905,0.161-1.345,0.286
		c-0.599,0.172-1.193,0.362-1.772,0.591c-0.486,0.192-0.96,0.429-1.416,0.685c-0.548,0.307-1.057,0.676-1.525,1.099
		c-0.407,0.369-0.774,0.77-1.096,1.215c-0.372,0.519-0.673,1.077-0.884,1.68c-0.082,0.236-0.165,0.476-0.21,0.721
		c-0.068,0.369-0.098,0.745-0.152,1.116c-0.076,0.52-0.016,1.036,0.074,1.543c0.082,0.459,0.226,0.906,0.413,1.338
		c0.271,0.624,0.624,1.195,1.062,1.709c0.294,0.347,0.61,0.683,0.955,0.981c0.406,0.353,0.836,0.687,1.289,0.976
		c0.473,0.303,0.977,0.555,1.479,0.807c0.342,0.17,0.696,0.322,1.061,0.44c0.528,0.173,1.066,0.324,1.607,0.456
		c0.469,0.114,0.946,0.204,1.423,0.274c0.426,0.062,0.854,0.097,1.284,0.116c0.407,0.02,0.816,0.02,1.223,0.002
		c0.584-0.025,1.169-0.063,1.75-0.117c0.416-0.039,0.833-0.09,1.239-0.182c0.558-0.125,1.104-0.293,1.656-0.444
		c0.608-0.167,1.19-0.41,1.752-0.692c0.44-0.221,0.859-0.484,1.28-0.74C36.227,28.337,36.67,27.978,37.076,27.582z M28.155,20.699
		c-0.316,0.041-0.638,0.056-0.947,0.124c-0.503,0.112-0.992,0.287-1.446,0.531c-0.611,0.327-1.154,0.747-1.59,1.293
		c-0.264,0.331-0.485,0.687-0.63,1.087c-0.115,0.318-0.229,0.635-0.229,0.979c-0.001,0.325-0.025,0.654,0.019,0.974
		c0.046,0.331,0.165,0.646,0.326,0.946c0.215,0.396,0.487,0.747,0.816,1.043c0.263,0.236,0.561,0.441,0.859,0.632
		c0.474,0.302,0.981,0.531,1.527,0.675c0.307,0.08,0.612,0.159,0.923,0.226c0.176,0.038,0.357,0.049,0.549,0.072
		c0-2.885,0-5.745,0-8.614C28.266,20.679,28.211,20.693,28.155,20.699z M41.418,41.201c-0.303,0.066-0.592,0.082-0.865-0.057
		c-0.151-0.075-0.254-0.189-0.24-0.385c0.013-0.223,0.002-0.445,0.002-0.668c0-0.271,0-0.541,0-0.826c0.365,0,0.717,0,1.064,0
		c0-0.24,0-0.465,0-0.699c-0.359,0-0.707,0-1.068,0c0-0.284,0-0.557,0-0.826c-0.443,0-0.871,0-1.312,0c0,0.281,0,0.551,0,0.836
		c-0.341,0-0.672,0-1.002,0c0,0.237,0,0.458,0,0.693c0.337,0,0.669,0,1.009,0c0,0.07,0,0.123,0,0.175
		c0,0.538-0.004,1.075,0.002,1.612c0.004,0.205,0.08,0.393,0.225,0.541c0.213,0.219,0.486,0.32,0.781,0.373
		c0.102,0.019,0.201,0.039,0.301,0.059c0.164,0,0.33,0,0.494,0c0.129-0.02,0.261-0.028,0.386-0.062
		c0.08-0.021,0.217,0.028,0.223-0.117C41.424,41.634,41.418,41.417,41.418,41.201z M41.971,31.917c-1.588,0-3.174,0-4.76,0
		c0,0.251,0,0.481,0,0.728c0.59,0,1.172,0,1.771,0c0,1.229,0,2.44,0,3.654c0.42,0,0.825,0,1.245,0c0-1.22,0-2.433,0-3.654
		c0.591,0,1.166,0,1.742,0C41.971,32.401,41.971,32.159,41.971,31.917z"/>
</g>
</svg>